<svg xmlns="http://www.w3.org/2000/svg" xmlns:xlink="http://www.w3.org/1999/xlink" viewBox="0,0,256,256" width="100px" height="100px" fill-rule="nonzero"><g fill-opacity="0" fill="#dddddd" fill-rule="nonzero" stroke="none" stroke-width="1" stroke-linecap="butt" stroke-linejoin="miter" stroke-miterlimit="10" stroke-dasharray="" stroke-dashoffset="0" font-family="none" font-weight="none" font-size="none" text-anchor="none" style="mix-blend-mode: normal"><path d="M0,256v-256h256v256z" id="bgRectangle"></path></g><g fill="none" fill-rule="nonzero" stroke="none" stroke-width="1" stroke-linecap="butt" stroke-linejoin="miter" stroke-miterlimit="10" stroke-dasharray="" stroke-dashoffset="0" font-family="none" font-weight="none" font-size="none" text-anchor="none" style="mix-blend-mode: normal"><g transform="scale(4,4)"><path d="M54,27.652h-4.058c-0.456,-1.885 -1.198,-3.653 -2.182,-5.263l2.871,-2.871c1.172,-1.172 1.172,-3.071 0,-4.243l-1.906,-1.906c-1.172,-1.172 -3.071,-1.172 -4.243,0l-2.871,2.871c-1.61,-0.984 -3.378,-1.727 -5.263,-2.182v-4.058c0,-1.657 -1.343,-3 -3,-3h-2.696c-1.657,0 -3,1.343 -3,3v4.058c-1.885,0.456 -3.653,1.198 -5.263,2.182l-2.871,-2.871c-1.172,-1.172 -3.071,-1.172 -4.243,0l-1.906,1.906c-1.172,1.172 -1.172,3.071 0,4.243l2.871,2.871c-0.984,1.61 -1.727,3.378 -2.182,5.263h-4.058c-1.657,0 -3,1.343 -3,3v2.696c0,1.657 1.343,3 3,3h4.058c0.456,1.885 1.198,3.653 2.182,5.263l-2.871,2.871c-1.172,1.172 -1.172,3.071 0,4.243l1.906,1.906c1.172,1.172 3.071,1.172 4.243,0l2.871,-2.871c1.61,0.984 3.378,1.727 5.263,2.182v4.058c0,1.657 1.343,3 3,3h2.696c1.657,0 3,-1.343 3,-3v-4.058c1.885,-0.456 3.653,-1.198 5.263,-2.182l2.871,2.871c1.172,1.172 3.071,1.172 4.243,0l1.906,-1.906c1.172,-1.172 1.172,-3.071 0,-4.243l-2.871,-2.871c0.984,-1.61 1.727,-3.378 2.182,-5.263h4.058c1.657,0 3,-1.343 3,-3v-2.696c0,-1.657 -1.343,-3 -3,-3z" fill="#ffce29"></path><ellipse cx="32" cy="61" rx="19" ry="3" fill="#000000" opacity="0.3"></ellipse><path d="M29.656,18.198c0.753,-0.127 1.462,-0.476 1.934,-1.077c0.669,-0.852 1.063,-1.917 1.063,-3.063v-4.058c0,-1.131 -0.39,-2.162 -1.023,-3h-0.977c-1.657,0 -3,1.343 -3,3v4.058c-1.885,0.456 -3.653,1.198 -5.263,2.182l-2.871,-2.871c-1.172,-1.172 -3.071,-1.172 -4.243,0l-1.906,1.906c-1.172,1.172 -1.172,3.071 0,4.243l2.871,2.871c-0.984,1.61 -1.727,3.378 -2.182,5.263h-4.059c-1.657,0 -3,1.343 -3,3v0.977c0.838,0.633 1.869,1.023 3,1.023h4.058c1.145,0 2.211,-0.394 3.063,-1.063c0.601,-0.472 0.95,-1.18 1.077,-1.934c0.987,-5.852 5.605,-10.47 11.458,-11.457z" fill="#ffffff" opacity="0.3"></path><path d="M54,31.348h-4.058c-1.145,0 -2.211,0.394 -3.063,1.063c-0.601,0.472 -0.95,1.18 -1.077,1.934c-0.987,5.853 -5.605,10.471 -11.458,11.458c-0.753,0.127 -1.462,0.476 -1.934,1.077c-0.669,0.852 -1.063,1.917 -1.063,3.063v4.057c0,1.131 0.39,2.162 1.023,3h0.977c1.657,0 3,-1.343 3,-3v-4.058c1.885,-0.456 3.653,-1.198 5.263,-2.182l2.871,2.871c1.172,1.172 3.071,1.172 4.243,0l1.906,-1.906c1.172,-1.172 1.172,-3.071 0,-4.243l-2.871,-2.871c0.984,-1.61 1.727,-3.378 2.182,-5.263h4.059c1.657,0 3,-1.343 3,-3v-0.978c-0.838,-0.633 -1.869,-1.022 -3,-1.022z" fill="#000000" opacity="0.15"></path><path d="M18.121,26.539c-0.218,0 -0.438,-0.047 -0.647,-0.147c-0.747,-0.358 -1.062,-1.254 -0.704,-2.001c1.566,-3.266 4.226,-5.932 7.489,-7.506c0.747,-0.362 1.644,-0.047 2.003,0.698c0.36,0.746 0.048,1.644 -0.698,2.003c-2.653,1.28 -4.816,3.447 -6.089,6.102c-0.258,0.538 -0.795,0.851 -1.354,0.851z" fill="#ffffff"></path><g fill="#9c34c2"><path d="M29.309,35.894c0,0.309 -0.124,0.569 -0.371,0.784c-0.248,0.215 -0.53,0.322 -0.848,0.322c-0.215,0 -0.412,-0.056 -0.588,-0.168c-0.178,-0.111 -0.318,-0.279 -0.421,-0.504l-0.629,-1.415h-4.539l-0.644,1.415c-0.103,0.224 -0.245,0.393 -0.428,0.504c-0.181,0.112 -0.379,0.168 -0.594,0.168c-0.318,0 -0.605,-0.107 -0.862,-0.322c-0.257,-0.215 -0.385,-0.476 -0.385,-0.784c0,-0.168 0.041,-0.341 0.126,-0.518l3.699,-7.591c0.12,-0.253 0.301,-0.446 0.538,-0.581c0.237,-0.135 0.502,-0.204 0.792,-0.204c0.279,0 0.541,0.068 0.784,0.203c0.242,0.135 0.424,0.329 0.545,0.581l3.699,7.591c0.084,0.178 0.126,0.35 0.126,0.519zM22.781,32.981h2.802l-1.402,-3.124z"></path><path d="M31.345,36.655c-0.23,-0.229 -0.345,-0.542 -0.345,-0.935v-7.524c0,-0.385 0.103,-0.68 0.31,-0.887c0.205,-0.206 0.5,-0.309 0.885,-0.309h3.601c1.096,0 1.95,0.279 2.559,0.836c0.61,0.558 0.915,1.335 0.915,2.328c0,0.985 -0.307,1.759 -0.922,2.321c-0.615,0.562 -1.465,0.844 -2.552,0.844h-2.209v2.391c0,0.393 -0.118,0.706 -0.352,0.935c-0.233,0.23 -0.552,0.345 -0.955,0.345c-0.393,0 -0.706,-0.115 -0.935,-0.345zM36.507,31.092c0.229,-0.197 0.345,-0.502 0.345,-0.914c0,-0.816 -0.47,-1.224 -1.406,-1.224h-1.857v2.433h1.857c0.477,0 0.831,-0.097 1.061,-0.295z"></path><path d="M41.342,36.658c-0.227,-0.228 -0.342,-0.539 -0.342,-0.929v-7.471c0,-0.382 0.115,-0.687 0.342,-0.915c0.228,-0.228 0.539,-0.343 0.929,-0.343c0.4,0 0.717,0.115 0.95,0.342c0.232,0.228 0.349,0.533 0.349,0.915v7.471c0,0.39 -0.117,0.701 -0.349,0.929c-0.233,0.228 -0.55,0.343 -0.95,0.343c-0.39,0 -0.701,-0.115 -0.929,-0.342z"></path></g></g></g></svg>