<svg xmlns="http://www.w3.org/2000/svg" xmlns:xlink="http://www.w3.org/1999/xlink" viewBox="0,0,256,256" width="100px" height="100px" fill-rule="nonzero"><defs><linearGradient x1="48" y1="15.75" x2="48" y2="20.25" gradientUnits="userSpaceOnUse" id="color-1"><stop offset="0" stop-color="#6dc7ff"></stop><stop offset="1" stop-color="#e6abff"></stop></linearGradient><linearGradient x1="40" y1="15.75" x2="40" y2="20.25" gradientUnits="userSpaceOnUse" id="color-2"><stop offset="0" stop-color="#6dc7ff"></stop><stop offset="1" stop-color="#e6abff"></stop></linearGradient><linearGradient x1="48" y1="29.625" x2="48" y2="34.382" gradientUnits="userSpaceOnUse" id="color-3"><stop offset="0" stop-color="#6dc7ff"></stop><stop offset="1" stop-color="#e6abff"></stop></linearGradient><linearGradient x1="40" y1="29.625" x2="40" y2="34.382" gradientUnits="userSpaceOnUse" id="color-4"><stop offset="0" stop-color="#6dc7ff"></stop><stop offset="1" stop-color="#e6abff"></stop></linearGradient><linearGradient x1="48" y1="43.625" x2="48" y2="48.502" gradientUnits="userSpaceOnUse" id="color-5"><stop offset="0" stop-color="#6dc7ff"></stop><stop offset="1" stop-color="#e6abff"></stop></linearGradient><linearGradient x1="40" y1="43.625" x2="40" y2="48.502" gradientUnits="userSpaceOnUse" id="color-6"><stop offset="0" stop-color="#6dc7ff"></stop><stop offset="1" stop-color="#e6abff"></stop></linearGradient><linearGradient x1="32" y1="6.833" x2="32" y2="57.492" gradientUnits="userSpaceOnUse" id="color-7"><stop offset="0" stop-color="#1a6dff"></stop><stop offset="1" stop-color="#c822ff"></stop></linearGradient><linearGradient x1="18" y1="6.833" x2="18" y2="57.492" gradientUnits="userSpaceOnUse" id="color-8"><stop offset="0" stop-color="#1a6dff"></stop><stop offset="1" stop-color="#c822ff"></stop></linearGradient><linearGradient x1="32" y1="6.833" x2="32" y2="57.492" gradientUnits="userSpaceOnUse" id="color-9"><stop offset="0" stop-color="#1a6dff"></stop><stop offset="1" stop-color="#c822ff"></stop></linearGradient><linearGradient x1="25" y1="6.833" x2="25" y2="57.492" gradientUnits="userSpaceOnUse" id="color-10"><stop offset="0" stop-color="#1a6dff"></stop><stop offset="1" stop-color="#c822ff"></stop></linearGradient><linearGradient x1="18" y1="6.833" x2="18" y2="57.492" gradientUnits="userSpaceOnUse" id="color-11"><stop offset="0" stop-color="#1a6dff"></stop><stop offset="1" stop-color="#c822ff"></stop></linearGradient><linearGradient x1="32" y1="6.833" x2="32" y2="57.492" gradientUnits="userSpaceOnUse" id="color-12"><stop offset="0" stop-color="#1a6dff"></stop><stop offset="1" stop-color="#c822ff"></stop></linearGradient><linearGradient x1="25" y1="6.833" x2="25" y2="57.492" gradientUnits="userSpaceOnUse" id="color-13"><stop offset="0" stop-color="#1a6dff"></stop><stop offset="1" stop-color="#c822ff"></stop></linearGradient><linearGradient x1="18" y1="6.833" x2="18" y2="57.492" gradientUnits="userSpaceOnUse" id="color-14"><stop offset="0" stop-color="#1a6dff"></stop><stop offset="1" stop-color="#c822ff"></stop></linearGradient><linearGradient x1="32" y1="6.833" x2="32" y2="57.492" gradientUnits="userSpaceOnUse" id="color-15"><stop offset="0" stop-color="#1a6dff"></stop><stop offset="1" stop-color="#c822ff"></stop></linearGradient><linearGradient x1="25" y1="6.833" x2="25" y2="57.492" gradientUnits="userSpaceOnUse" id="color-16"><stop offset="0" stop-color="#1a6dff"></stop><stop offset="1" stop-color="#c822ff"></stop></linearGradient></defs><g fill-opacity="0" fill="#dddddd" fill-rule="nonzero" stroke="none" stroke-width="1" stroke-linecap="butt" stroke-linejoin="miter" stroke-miterlimit="10" stroke-dasharray="" stroke-dashoffset="0" font-family="none" font-weight="none" font-size="none" text-anchor="none" style="mix-blend-mode: normal"><path d="M0,256v-256h256v256z" id="bgRectangle"></path></g><g fill="none" fill-rule="nonzero" stroke="none" stroke-width="1" stroke-linecap="butt" stroke-linejoin="miter" stroke-miterlimit="10" stroke-dasharray="" stroke-dashoffset="0" font-family="none" font-weight="none" font-size="none" text-anchor="none" style="mix-blend-mode: normal"><g transform="scale(4,4)"><path d="M48,16c-1.10457,0 -2,0.89543 -2,2c0,1.10457 0.89543,2 2,2c1.10457,0 2,-0.89543 2,-2c0,-1.10457 -0.89543,-2 -2,-2z" fill="url(#color-1)"></path><path d="M40,16c-1.10457,0 -2,0.89543 -2,2c0,1.10457 0.89543,2 2,2c1.10457,0 2,-0.89543 2,-2c0,-1.10457 -0.89543,-2 -2,-2z" fill="url(#color-2)"></path><path d="M48,30c-1.10457,0 -2,0.89543 -2,2c0,1.10457 0.89543,2 2,2c1.10457,0 2,-0.89543 2,-2c0,-1.10457 -0.89543,-2 -2,-2z" fill="url(#color-3)"></path><path d="M40,30c-1.10457,0 -2,0.89543 -2,2c0,1.10457 0.89543,2 2,2c1.10457,0 2,-0.89543 2,-2c0,-1.10457 -0.89543,-2 -2,-2z" fill="url(#color-4)"></path><path d="M48,44c-1.10457,0 -2,0.89543 -2,2c0,1.10457 0.89543,2 2,2c1.10457,0 2,-0.89543 2,-2c0,-1.10457 -0.89543,-2 -2,-2z" fill="url(#color-5)"></path><path d="M40,44c-1.10457,0 -2,0.89543 -2,2c0,1.10457 0.89543,2 2,2c1.10457,0 2,-0.89543 2,-2c0,-1.10457 -0.89543,-2 -2,-2z" fill="url(#color-6)"></path><path d="M55,13c0,-1.654 -1.346,-3 -3,-3h-1v-1c0,-1.654 -1.346,-3 -3,-3h-32c-1.654,0 -3,1.346 -3,3v1h-1c-1.654,0 -3,1.346 -3,3v10c0,0.771 0.301,1.468 0.78,2c-0.479,0.532 -0.78,1.229 -0.78,2v10c0,0.771 0.301,1.468 0.78,2c-0.479,0.532 -0.78,1.229 -0.78,2v10c0,1.654 1.346,3 3,3h1v1c0,1.654 1.346,3 3,3h8c1.654,0 3,-1.346 3,-3v-1h10v1c0,1.654 1.346,3 3,3h8c1.654,0 3,-1.346 3,-3v-1h1c1.654,0 3,-1.346 3,-3v-10c0,-0.771 -0.301,-1.468 -0.78,-2c0.48,-0.532 0.78,-1.229 0.78,-2v-10c0,-0.771 -0.301,-1.468 -0.78,-2c0.48,-0.532 0.78,-1.229 0.78,-2zM15,9c0,-0.551 0.448,-1 1,-1h32c0.552,0 1,0.449 1,1v1h-34zM11,13c0,-0.551 0.448,-1 1,-1h40c0.552,0 1,0.449 1,1v10c0,0.551 -0.448,1 -1,1h-18.184c-0.414,-1.161 -1.514,-2 -2.816,-2h-12c-1.302,0 -2.402,0.839 -2.816,2h-4.184c-0.552,0 -1,-0.449 -1,-1zM53,27v10c0,0.551 -0.448,1 -1,1h-18.184c-0.414,-1.161 -1.514,-2 -2.816,-2h-12c-1.302,0 -2.402,0.839 -2.816,2h-4.184c-0.552,0 -1,-0.449 -1,-1v-10c0,-0.551 0.448,-1 1,-1h40c0.552,0 1,0.449 1,1zM25,55c0,0.551 -0.448,1 -1,1h-8c-0.552,0 -1,-0.449 -1,-1v-1h10zM49,55c0,0.551 -0.448,1 -1,1h-8c-0.552,0 -1,-0.449 -1,-1v-1h10zM53,51c0,0.551 -0.448,1 -1,1h-18.184c-0.414,-1.161 -1.514,-2 -2.816,-2h-12c-1.302,0 -2.402,0.839 -2.816,2h-4.184c-0.552,0 -1,-0.449 -1,-1v-10c0,-0.551 0.448,-1 1,-1h40c0.552,0 1,0.449 1,1z" fill="url(#color-7)"></path><path d="M16,31h4v2h-4z" fill="url(#color-8)"></path><path d="M30,31h4v2h-4z" fill="url(#color-9)"></path><path d="M22,31h6v2h-6z" fill="url(#color-10)"></path><path d="M16,45h4v2h-4z" fill="url(#color-11)"></path><path d="M30,45h4v2h-4z" fill="url(#color-12)"></path><path d="M22,45h6v2h-6z" fill="url(#color-13)"></path><path d="M16,17h4v2h-4z" fill="url(#color-14)"></path><path d="M30,17h4v2h-4z" fill="url(#color-15)"></path><path d="M22,17h6v2h-6z" fill="url(#color-16)"></path></g></g></svg>