<svg xmlns="http://www.w3.org/2000/svg" xmlns:xlink="http://www.w3.org/1999/xlink" viewBox="0,0,256,256" width="100px" height="100px" fill-rule="nonzero"><g fill-opacity="0" fill="#dddddd" fill-rule="nonzero" stroke="none" stroke-width="1" stroke-linecap="butt" stroke-linejoin="miter" stroke-miterlimit="10" stroke-dasharray="" stroke-dashoffset="0" font-family="none" font-weight="none" font-size="none" text-anchor="none" style="mix-blend-mode: normal"><path d="M0,256v-256h256v256z" id="bgRectangle"></path></g><g fill="none" fill-rule="nonzero" stroke="none" stroke-width="1" stroke-linecap="butt" stroke-linejoin="miter" stroke-miterlimit="10" stroke-dasharray="" stroke-dashoffset="0" font-family="none" font-weight="none" font-size="none" text-anchor="none" style="mix-blend-mode: normal"><g transform="scale(10.66667,10.66667)"><path d="M8,24c2.208,0 4,-1.792 4,-4v-4h-4c-2.208,0 -4,1.792 -4,4c0,2.208 1.792,4 4,4z" fill="#0acf83"></path><path d="M4,12c0,-2.208 1.792,-4 4,-4h4v8h-4c-2.208,0 -4,-1.792 -4,-4z" fill="#a259ff"></path><path d="M4,4c0,-2.208 1.792,-4 4,-4h4v8h-4c-2.208,0 -4,-1.792 -4,-4z" fill="#f24e1e"></path><path d="M12,0h4c2.208,0 4,1.792 4,4c0,2.208 -1.792,4 -4,4h-4z" fill="#ff7262"></path><path d="M20,12c0,2.208 -1.792,4 -4,4c-2.208,0 -4,-1.792 -4,-4c0,-2.208 1.792,-4 4,-4c2.208,0 4,1.792 4,4z" fill="#1abcfe"></path></g></g></svg>