<svg xmlns="http://www.w3.org/2000/svg" version="1.1" xmlns:xlink="http://www.w3.org/1999/xlink" xmlns:svgjs="http://svgjs.dev/svgjs" width="1920" height="1080" preserveAspectRatio="none" viewBox="0 0 1920 1080"><g mask="url(&quot;#SvgjsMask1233&quot;)" fill="none"><rect width="1920" height="1080" x="0" y="0" fill="rgba(13, 13, 13, 1)"></rect><path d="M129.95 89.12L201.83 130.62L201.83 213.62L129.95 255.12L58.07 213.62L58.07 130.62zM58.07 462.62L129.95 504.12L129.95 587.12L58.07 628.62L-13.81 587.12L-13.81 504.12zM129.95 587.12L201.83 628.62L201.83 711.62L129.95 753.12L58.07 711.62L58.07 628.62zM58.07 711.62L129.95 753.12L129.95 836.12L58.07 877.62L-13.81 836.12L-13.81 753.12zM129.95 836.12L201.83 877.62L201.83 960.62L129.95 1002.12L58.07 960.62L58.07 877.62zM58.07 960.62L129.95 1002.12L129.95 1085.12L58.07 1126.62L-13.81 1085.12L-13.81 1002.12zM129.95 1085.12L201.83 1126.62L201.83 1209.62L129.95 1251.12L58.07 1209.62L58.07 1126.62zM201.83 213.62L273.72 255.12L273.72 338.12L201.83 379.62L129.95 338.12L129.95 255.12zM417.48 89.12L489.36 130.62L489.36 213.62L417.48 255.12L345.6 213.62L345.6 130.62zM345.6 462.62L417.48 504.12L417.48 587.12L345.6 628.62L273.72 587.12L273.72 504.12zM417.48 587.12L489.36 628.62L489.36 711.62L417.48 753.12L345.6 711.62L345.6 628.62zM345.6 960.62L417.48 1002.12L417.48 1085.12L345.6 1126.62L273.72 1085.12L273.72 1002.12zM417.48 1085.12L489.36 1126.62L489.36 1209.62L417.48 1251.12L345.6 1209.62L345.6 1126.62zM489.36 -35.38L561.25 6.12L561.25 89.12L489.36 130.62L417.48 89.12L417.48 6.12zM489.36 213.62L561.25 255.12L561.25 338.12L489.36 379.62L417.48 338.12L417.48 255.12zM561.25 587.12L633.13 628.62L633.13 711.62L561.25 753.12L489.36 711.62L489.36 628.62zM489.36 711.62L561.25 753.12L561.25 836.12L489.36 877.62L417.48 836.12L417.48 753.12zM633.13 213.62L705.01 255.12L705.01 338.12L633.13 379.62L561.25 338.12L561.25 255.12zM705.01 587.12L776.89 628.62L776.89 711.62L705.01 753.12L633.13 711.62L633.13 628.62zM633.13 960.62L705.01 1002.12L705.01 1085.12L633.13 1126.62L561.25 1085.12L561.25 1002.12zM848.77 338.12L920.66 379.62L920.66 462.62L848.77 504.12L776.89 462.62L776.89 379.62zM776.89 960.62L848.77 1002.12L848.77 1085.12L776.89 1126.62L705.01 1085.12L705.01 1002.12zM848.77 1085.12L920.66 1126.62L920.66 1209.62L848.77 1251.12L776.89 1209.62L776.89 1126.62zM920.66 -35.38L992.54 6.12L992.54 89.12L920.66 130.62L848.77 89.12L848.77 6.12zM992.54 89.12L1064.42 130.62L1064.42 213.62L992.54 255.12L920.66 213.62L920.66 130.62zM992.54 338.12L1064.42 379.62L1064.42 462.62L992.54 504.12L920.66 462.62L920.66 379.62zM920.66 462.62L992.54 504.12L992.54 587.12L920.66 628.62L848.77 587.12L848.77 504.12zM920.66 711.62L992.54 753.12L992.54 836.12L920.66 877.62L848.77 836.12L848.77 753.12zM920.66 960.62L992.54 1002.12L992.54 1085.12L920.66 1126.62L848.77 1085.12L848.77 1002.12zM992.54 1085.12L1064.42 1126.62L1064.42 1209.62L992.54 1251.12L920.66 1209.62L920.66 1126.62zM1064.42 213.62L1136.3 255.12L1136.3 338.12L1064.42 379.62L992.54 338.12L992.54 255.12zM1136.3 338.12L1208.18 379.62L1208.18 462.62L1136.3 504.12L1064.42 462.62L1064.42 379.62zM1064.42 711.62L1136.3 753.12L1136.3 836.12L1064.42 877.62L992.54 836.12L992.54 753.12zM1136.3 1085.12L1208.18 1126.62L1208.18 1209.62L1136.3 1251.12L1064.42 1209.62L1064.42 1126.62zM1280.07 338.12L1351.95 379.62L1351.95 462.62L1280.07 504.12L1208.18 462.62L1208.18 379.62zM1280.07 587.12L1351.95 628.62L1351.95 711.62L1280.07 753.12L1208.18 711.62L1208.18 628.62zM1208.18 711.62L1280.07 753.12L1280.07 836.12L1208.18 877.62L1136.3 836.12L1136.3 753.12zM1208.18 960.62L1280.07 1002.12L1280.07 1085.12L1208.18 1126.62L1136.3 1085.12L1136.3 1002.12zM1351.95 -35.38L1423.83 6.12L1423.83 89.12L1351.95 130.62L1280.07 89.12L1280.07 6.12zM1423.83 338.12L1495.71 379.62L1495.71 462.62L1423.83 504.12L1351.95 462.62L1351.95 379.62zM1423.83 587.12L1495.71 628.62L1495.71 711.62L1423.83 753.12L1351.95 711.62L1351.95 628.62zM1567.6 89.12L1639.48 130.62L1639.48 213.62L1567.6 255.12L1495.71 213.62L1495.71 130.62zM1567.6 587.12L1639.48 628.62L1639.48 711.62L1567.6 753.12L1495.71 711.62L1495.71 628.62zM1567.6 1085.12L1639.48 1126.62L1639.48 1209.62L1567.6 1251.12L1495.71 1209.62L1495.71 1126.62zM1639.48 -35.38L1711.36 6.12L1711.36 89.12L1639.48 130.62L1567.6 89.12L1567.6 6.12zM1711.36 89.12L1783.24 130.62L1783.24 213.62L1711.36 255.12L1639.48 213.62L1639.48 130.62zM1711.36 338.12L1783.24 379.62L1783.24 462.62L1711.36 504.12L1639.48 462.62L1639.48 379.62zM1711.36 587.12L1783.24 628.62L1783.24 711.62L1711.36 753.12L1639.48 711.62L1639.48 628.62zM1711.36 1085.12L1783.24 1126.62L1783.24 1209.62L1711.36 1251.12L1639.48 1209.62L1639.48 1126.62zM1783.24 -35.38L1855.12 6.12L1855.12 89.12L1783.24 130.62L1711.36 89.12L1711.36 6.12zM1783.24 462.62L1855.12 504.12L1855.12 587.12L1783.24 628.62L1711.36 587.12L1711.36 504.12zM1998.89 89.12L2070.77 130.62L2070.77 213.62L1998.89 255.12L1927.01 213.62L1927.01 130.62zM1998.89 338.12L2070.77 379.62L2070.77 462.62L1998.89 504.12L1927.01 462.62L1927.01 379.62z" stroke="rgba(255, 255, 255, 0.05)" stroke-width="2"></path><path d="M21.86 698.66L93.74 740.16L93.74 823.16L21.86 864.66L-50.02 823.16L-50.02 740.16zM93.74 823.16L165.62 864.66L165.62 947.66L93.74 989.16L21.86 947.66L21.86 864.66zM165.62 449.66L237.51 491.16L237.51 574.16L165.62 615.66L93.74 574.16L93.74 491.16zM237.51 1072.16L309.39 1113.66L309.39 1196.66L237.51 1238.16L165.62 1196.66L165.62 1113.66zM381.27 76.16L453.15 117.66L453.15 200.66L381.27 242.16L309.39 200.66L309.39 117.66zM381.27 574.16L453.15 615.66L453.15 698.66L381.27 740.16L309.39 698.66L309.39 615.66zM309.39 947.66L381.27 989.16L381.27 1072.16L309.39 1113.66L237.51 1072.16L237.51 989.16zM381.27 1072.16L453.15 1113.66L453.15 1196.66L381.27 1238.16L309.39 1196.66L309.39 1113.66zM453.15 449.66L525.04 491.16L525.04 574.16L453.15 615.66L381.27 574.16L381.27 491.16zM525.04 823.16L596.92 864.66L596.92 947.66L525.04 989.16L453.15 947.66L453.15 864.66zM668.8 76.16L740.68 117.66L740.68 200.66L668.8 242.16L596.92 200.66L596.92 117.66zM740.68 -48.34L812.56 -6.84L812.56 76.16L740.68 117.66L668.8 76.16L668.8 -6.84zM956.33 325.16L1028.21 366.66L1028.21 449.66L956.33 491.16L884.45 449.66L884.45 366.66zM1100.09 325.16L1171.97 366.66L1171.97 449.66L1100.09 491.16L1028.21 449.66L1028.21 366.66zM1028.21 449.66L1100.09 491.16L1100.09 574.16L1028.21 615.66L956.33 574.16L956.33 491.16zM1100.09 823.16L1171.97 864.66L1171.97 947.66L1100.09 989.16L1028.21 947.66L1028.21 864.66zM1243.86 823.16L1315.74 864.66L1315.74 947.66L1243.86 989.16L1171.97 947.66L1171.97 864.66zM1315.74 -48.34L1387.62 -6.84L1387.62 76.16L1315.74 117.66L1243.86 76.16L1243.86 -6.84zM1387.62 325.16L1459.5 366.66L1459.5 449.66L1387.62 491.16L1315.74 449.66L1315.74 366.66zM1459.5 -48.34L1531.39 -6.84L1531.39 76.16L1459.5 117.66L1387.62 76.16L1387.62 -6.84zM1459.5 449.66L1531.39 491.16L1531.39 574.16L1459.5 615.66L1387.62 574.16L1387.62 491.16zM1531.39 1072.16L1603.27 1113.66L1603.27 1196.66L1531.39 1238.16L1459.5 1196.66L1459.5 1113.66zM1675.15 325.16L1747.03 366.66L1747.03 449.66L1675.15 491.16L1603.27 449.66L1603.27 366.66zM1747.03 -48.34L1818.91 -6.84L1818.91 76.16L1747.03 117.66L1675.15 76.16L1675.15 -6.84zM1818.91 76.16L1890.8 117.66L1890.8 200.66L1818.91 242.16L1747.03 200.66L1747.03 117.66zM1747.03 200.66L1818.91 242.16L1818.91 325.16L1747.03 366.66L1675.15 325.16L1675.15 242.16zM1818.91 574.16L1890.8 615.66L1890.8 698.66L1818.91 740.16L1747.03 698.66L1747.03 615.66zM1818.91 1072.16L1890.8 1113.66L1890.8 1196.66L1818.91 1238.16L1747.03 1196.66L1747.03 1113.66zM1890.8 -48.34L1962.68 -6.84L1962.68 76.16L1890.8 117.66L1818.91 76.16L1818.91 -6.84zM1962.68 325.16L2034.56 366.66L2034.56 449.66L1962.68 491.16L1890.8 449.66L1890.8 366.66zM1890.8 947.66L1962.68 989.16L1962.68 1072.16L1890.8 1113.66L1818.91 1072.16L1818.91 989.16z" stroke="rgba(255, 255, 255, 0.05)" stroke-width="2"></path></g><defs><mask id="SvgjsMask1233"><rect width="1920" height="1080" fill="#ffffff"></rect></mask></defs></svg>