<svg width="1000" height="1000" viewBox="0 0 1000 1000" xmlns="http://www.w3.org/2000/svg"><defs/><path fill="#91ff00" d="M 0 0 L 1000 0 L 1000 1000 L 0 1000 Z"/><path id="text" fill="#14648c" transform="matrix(5.966173924623785 0 0 5.966173924623785 -6.991610067918498 399.9200958849381)" d="M 26.31361607143 -16.74107142857 L 39.67299107143 -16.74107142857 L 58.51674107143 15.55580357143 L 76.23549107143 -16.74107142857 L 89.12611607143 -16.74107142857 L 64.46986607143 26.85267857143 L 64.46986607143 50.29017857143 L 52.04799107143 50.29017857143 L 52.04799107143 26.85267857143 L 26.31361607143 -16.74107142857 Z M 93.11049107143 50.29017857143 L 93.11049107143 -16.74107142857 L 123.11049107143 -16.74107142857 C 136.79799107143 -16.74107142857 143.64174107143 -10.44419642857 143.64174107143 2.14955357143 C 143.64174107143 15.80580357143 134.28236607143 24.07142857143 115.56361607143 26.94642857143 L 113.78236607143 15.88392857143 C 125.03236607143 13.85267857143 130.65736607143 9.39955357143 130.65736607143 2.52455357143 C 130.65736607143 -3.03794642857 127.87611607143 -5.81919642857 122.31361607143 -5.81919642857 L 105.53236607143 -5.81919642857 L 105.53236607143 50.29017857143 L 93.11049107143 50.29017857143 Z"/></svg>