<svg xmlns="http://www.w3.org/2000/svg" version="1.1" xmlns:xlink="http://www.w3.org/1999/xlink" xmlns:svgjs="http://svgjs.dev/svgjs" width="1440" height="560" preserveAspectRatio="none" viewBox="0 0 1440 560"><g mask="url(&quot;#SvgjsMask1017&quot;)" fill="none"><rect width="1440" height="560" x="0" y="0" fill="rgba(13, 13, 13, 1)"></rect><path d="M88.04 285.78L153 323.28L153 398.28L88.04 435.78L23.09 398.28L23.09 323.28zM153 173.28L217.95 210.78L217.95 285.78L153 323.28L88.04 285.78L88.04 210.78zM217.95 285.78L282.9 323.28L282.9 398.28L217.95 435.78L153 398.28L153 323.28zM217.95 510.78L282.9 548.28L282.9 623.28L217.95 660.78L153 623.28L153 548.28zM282.9 -51.72L347.86 -14.22L347.86 60.78L282.9 98.28L217.95 60.78L217.95 -14.22zM347.86 60.78L412.81 98.28L412.81 173.28L347.86 210.78L282.9 173.28L282.9 98.28zM347.86 285.78L412.81 323.28L412.81 398.28L347.86 435.78L282.9 398.28L282.9 323.28zM347.86 510.78L412.81 548.28L412.81 623.28L347.86 660.78L282.9 623.28L282.9 548.28zM412.81 173.28L477.77 210.78L477.77 285.78L412.81 323.28L347.86 285.78L347.86 210.78zM412.81 398.28L477.77 435.78L477.77 510.78L412.81 548.28L347.86 510.78L347.86 435.78zM477.77 510.78L542.72 548.28L542.72 623.28L477.77 660.78L412.81 623.28L412.81 548.28zM542.72 -51.72L607.67 -14.22L607.67 60.78L542.72 98.28L477.77 60.78L477.77 -14.22zM542.72 173.28L607.67 210.78L607.67 285.78L542.72 323.28L477.77 285.78L477.77 210.78zM607.67 510.78L672.63 548.28L672.63 623.28L607.67 660.78L542.72 623.28L542.72 548.28zM802.53 173.28L867.49 210.78L867.49 285.78L802.53 323.28L737.58 285.78L737.58 210.78zM802.53 398.28L867.49 435.78L867.49 510.78L802.53 548.28L737.58 510.78L737.58 435.78zM997.4 60.78L1062.35 98.28L1062.35 173.28L997.4 210.78L932.44 173.28L932.44 98.28zM1127.3 285.78L1192.26 323.28L1192.26 398.28L1127.3 435.78L1062.35 398.28L1062.35 323.28zM1062.35 398.28L1127.3 435.78L1127.3 510.78L1062.35 548.28L997.4 510.78L997.4 435.78zM1127.3 510.78L1192.26 548.28L1192.26 623.28L1127.3 660.78L1062.35 623.28L1062.35 548.28zM1192.26 -51.72L1257.21 -14.22L1257.21 60.78L1192.26 98.28L1127.3 60.78L1127.3 -14.22zM1192.26 173.28L1257.21 210.78L1257.21 285.78L1192.26 323.28L1127.3 285.78L1127.3 210.78zM1257.21 285.78L1322.16 323.28L1322.16 398.28L1257.21 435.78L1192.26 398.28L1192.26 323.28zM1192.26 398.28L1257.21 435.78L1257.21 510.78L1192.26 548.28L1127.3 510.78L1127.3 435.78zM1257.21 510.78L1322.16 548.28L1322.16 623.28L1257.21 660.78L1192.26 623.28L1192.26 548.28zM1322.16 398.28L1387.12 435.78L1387.12 510.78L1322.16 548.28L1257.21 510.78L1257.21 435.78zM1387.12 510.78L1452.07 548.28L1452.07 623.28L1387.12 660.78L1322.16 623.28L1322.16 548.28zM1452.07 -51.72L1517.03 -14.22L1517.03 60.78L1452.07 98.28L1387.12 60.78L1387.12 -14.22zM1517.03 60.78L1581.98 98.28L1581.98 173.28L1517.03 210.78L1452.07 173.28L1452.07 98.28zM1452.07 173.28L1517.03 210.78L1517.03 285.78L1452.07 323.28L1387.12 285.78L1387.12 210.78zM1517.03 285.78L1581.98 323.28L1581.98 398.28L1517.03 435.78L1452.07 398.28L1452.07 323.28zM1452.07 398.28L1517.03 435.78L1517.03 510.78L1452.07 548.28L1387.12 510.78L1387.12 435.78z" stroke="rgba(255, 255, 255, 0.0784313725490196)" stroke-width="2"></path><path d="M155.42 350.96L231.63 394.96L231.63 482.96L155.42 526.96L79.21 482.96L79.21 394.96zM231.63 -45.04L307.85 -1.04L307.85 86.96L231.63 130.96L155.42 86.96L155.42 -1.04zM307.85 86.96L384.06 130.96L384.06 218.96L307.85 262.96L231.63 218.96L231.63 130.96zM460.27 86.96L536.48 130.96L536.48 218.96L460.27 262.96L384.06 218.96L384.06 130.96zM460.27 350.96L536.48 394.96L536.48 482.96L460.27 526.96L384.06 482.96L384.06 394.96zM612.7 350.96L688.91 394.96L688.91 482.96L612.7 526.96L536.48 482.96L536.48 394.96zM765.12 86.96L841.33 130.96L841.33 218.96L765.12 262.96L688.91 218.96L688.91 130.96zM765.12 350.96L841.33 394.96L841.33 482.96L765.12 526.96L688.91 482.96L688.91 394.96zM841.33 218.96L917.55 262.96L917.55 350.96L841.33 394.96L765.12 350.96L765.12 262.96zM841.33 482.96L917.55 526.96L917.55 614.96L841.33 658.96L765.12 614.96L765.12 526.96zM1069.97 86.96L1146.18 130.96L1146.18 218.96L1069.97 262.96L993.76 218.96L993.76 130.96zM993.76 482.96L1069.97 526.96L1069.97 614.96L993.76 658.96L917.55 614.96L917.55 526.96zM1146.18 -45.04L1222.4 -1.04L1222.4 86.96L1146.18 130.96L1069.97 86.96L1069.97 -1.04zM1222.4 86.96L1298.61 130.96L1298.61 218.96L1222.4 262.96L1146.18 218.96L1146.18 130.96zM1146.18 218.96L1222.4 262.96L1222.4 350.96L1146.18 394.96L1069.97 350.96L1069.97 262.96zM1222.4 350.96L1298.61 394.96L1298.61 482.96L1222.4 526.96L1146.18 482.96L1146.18 394.96zM1146.18 482.96L1222.4 526.96L1222.4 614.96L1146.18 658.96L1069.97 614.96L1069.97 526.96zM1298.61 -45.04L1374.82 -1.04L1374.82 86.96L1298.61 130.96L1222.4 86.96L1222.4 -1.04zM1298.61 218.96L1374.82 262.96L1374.82 350.96L1298.61 394.96L1222.4 350.96L1222.4 262.96zM1527.25 350.96L1603.46 394.96L1603.46 482.96L1527.25 526.96L1451.03 482.96L1451.03 394.96z" stroke="rgba(255, 255, 255, 0.0784313725490196)" stroke-width="2"></path></g><defs><mask id="SvgjsMask1017"><rect width="1440" height="560" fill="#ffffff"></rect></mask></defs></svg>