<svg xmlns="http://www.w3.org/2000/svg" version="1.1" xmlns:xlink="http://www.w3.org/1999/xlink" xmlns:svgjs="http://svgjs.dev/svgjs" width="1440" height="560" preserveAspectRatio="none" viewBox="0 0 1440 560"><g mask="url(&quot;#SvgjsMask1027&quot;)" fill="none"><rect width="1440" height="560" x="0" y="0" fill="rgba(13, 13, 13, 1)"></rect><path d="M51.19 168.62L116.14 206.12L116.14 281.12L51.19 318.62L-13.76 281.12L-13.76 206.12zM181.1 -56.38L246.05 -18.88L246.05 56.12L181.1 93.62L116.14 56.12L116.14 -18.88zM246.05 56.12L311 93.62L311 168.62L246.05 206.12L181.1 168.62L181.1 93.62zM246.05 506.12L311 543.62L311 618.62L246.05 656.12L181.1 618.62L181.1 543.62zM440.91 -56.38L505.87 -18.88L505.87 56.12L440.91 93.62L375.96 56.12L375.96 -18.88zM505.87 56.12L570.82 93.62L570.82 168.62L505.87 206.12L440.91 168.62L440.91 93.62zM440.91 168.62L505.87 206.12L505.87 281.12L440.91 318.62L375.96 281.12L375.96 206.12zM570.82 168.62L635.77 206.12L635.77 281.12L570.82 318.62L505.87 281.12L505.87 206.12zM635.77 281.12L700.73 318.62L700.73 393.62L635.77 431.12L570.82 393.62L570.82 318.62zM765.68 506.12L830.63 543.62L830.63 618.62L765.68 656.12L700.73 618.62L700.73 543.62zM895.59 281.12L960.54 318.62L960.54 393.62L895.59 431.12L830.63 393.62L830.63 318.62zM1025.5 56.12L1090.45 93.62L1090.45 168.62L1025.5 206.12L960.54 168.62L960.54 93.62zM1285.31 56.12L1350.26 93.62L1350.26 168.62L1285.31 206.12L1220.36 168.62L1220.36 93.62zM1220.36 393.62L1285.31 431.12L1285.31 506.12L1220.36 543.62L1155.4 506.12L1155.4 431.12zM1285.31 506.12L1350.26 543.62L1350.26 618.62L1285.31 656.12L1220.36 618.62L1220.36 543.62zM1350.27 168.62L1415.22 206.12L1415.22 281.12L1350.27 318.62L1285.31 281.12L1285.31 206.12zM1415.22 281.12L1480.17 318.62L1480.17 393.62L1415.22 431.12L1350.27 393.62L1350.27 318.62zM1480.17 168.62L1545.13 206.12L1545.13 281.12L1480.17 318.62L1415.22 281.12L1415.22 206.12z" stroke="rgba(255, 255, 255, 0.0784313725490196)" stroke-width="2"></path><path d="M3.62 -3.66L79.83 40.34L79.83 128.34L3.62 172.34L-72.59 128.34L-72.59 40.34zM156.04 260.34L232.26 304.34L232.26 392.34L156.04 436.34L79.83 392.34L79.83 304.34zM613.32 260.34L689.53 304.34L689.53 392.34L613.32 436.34L537.11 392.34L537.11 304.34zM689.53 392.34L765.74 436.34L765.74 524.34L689.53 568.34L613.32 524.34L613.32 436.34zM1146.81 392.34L1223.02 436.34L1223.02 524.34L1146.81 568.34L1070.59 524.34L1070.59 436.34zM1375.44 -3.66L1451.66 40.34L1451.66 128.34L1375.44 172.34L1299.23 128.34L1299.23 40.34z" stroke="rgba(255, 255, 255, 0.0784313725490196)" stroke-width="2"></path></g><defs><mask id="SvgjsMask1027"><rect width="1440" height="560" fill="#ffffff"></rect></mask></defs></svg>