<svg xmlns="http://www.w3.org/2000/svg" version="1.1" xmlns:xlink="http://www.w3.org/1999/xlink" xmlns:svgjs="http://svgjs.dev/svgjs" width="1440" height="560" preserveAspectRatio="none" viewBox="0 0 1440 560"><g mask="url(&quot;#SvgjsMask1029&quot;)" fill="none"><rect width="1440" height="560" x="0" y="0" fill="rgba(13, 13, 13, 1)"></rect><path d="M131.73 62.98L196.69 100.48L196.69 175.48L131.73 212.98L66.78 175.48L66.78 100.48zM66.78 175.48L131.73 212.98L131.73 287.98L66.78 325.48L1.83 287.98L1.83 212.98zM391.55 62.98L456.5 100.48L456.5 175.48L391.55 212.98L326.6 175.48L326.6 100.48zM326.6 175.48L391.55 212.98L391.55 287.98L326.6 325.48L261.64 287.98L261.64 212.98zM456.5 -49.52L521.46 -12.02L521.46 62.98L456.5 100.48L391.55 62.98L391.55 -12.02zM521.46 512.98L586.41 550.48L586.41 625.48L521.46 662.98L456.5 625.48L456.5 550.48zM586.41 -49.52L651.36 -12.02L651.36 62.98L586.41 100.48L521.46 62.98L521.46 -12.02zM651.36 62.98L716.32 100.48L716.32 175.48L651.36 212.98L586.41 175.48L586.41 100.48zM586.41 175.48L651.36 212.98L651.36 287.98L586.41 325.48L521.46 287.98L521.46 212.98zM651.36 287.98L716.32 325.48L716.32 400.48L651.36 437.98L586.41 400.48L586.41 325.48zM651.36 512.98L716.32 550.48L716.32 625.48L651.36 662.98L586.41 625.48L586.41 550.48zM781.27 62.98L846.23 100.48L846.23 175.48L781.27 212.98L716.32 175.48L716.32 100.48zM846.22 175.48L911.18 212.98L911.18 287.98L846.22 325.48L781.27 287.98L781.27 212.98zM911.18 287.98L976.13 325.48L976.13 400.48L911.18 437.98L846.22 400.48L846.22 325.48zM1041.09 62.98L1106.04 100.48L1106.04 175.48L1041.09 212.98L976.13 175.48L976.13 100.48zM976.13 175.48L1041.09 212.98L1041.09 287.98L976.13 325.48L911.18 287.98L911.18 212.98zM1041.09 287.98L1106.04 325.48L1106.04 400.48L1041.09 437.98L976.13 400.48L976.13 325.48zM1106.04 -49.52L1170.99 -12.02L1170.99 62.98L1106.04 100.48L1041.09 62.98L1041.09 -12.02zM1106.04 175.48L1170.99 212.98L1170.99 287.98L1106.04 325.48L1041.09 287.98L1041.09 212.98zM1106.04 400.48L1170.99 437.98L1170.99 512.98L1106.04 550.48L1041.09 512.98L1041.09 437.98zM1170.99 512.98L1235.95 550.48L1235.95 625.48L1170.99 662.98L1106.04 625.48L1106.04 550.48zM1235.95 175.48L1300.9 212.98L1300.9 287.98L1235.95 325.48L1170.99 287.98L1170.99 212.98zM1300.9 287.98L1365.85 325.48L1365.85 400.48L1300.9 437.98L1235.95 400.48L1235.95 325.48zM1235.95 400.48L1300.9 437.98L1300.9 512.98L1235.95 550.48L1170.99 512.98L1170.99 437.98zM1495.76 400.48L1560.72 437.98L1560.72 512.98L1495.76 550.48L1430.81 512.98L1430.81 437.98zM1560.72 512.98L1625.67 550.48L1625.67 625.48L1560.72 662.98L1495.76 625.48L1495.76 550.48z" stroke="rgba(255, 255, 255, 0.0784313725490196)" stroke-width="2"></path><path d="M16.69 191.93L92.9 235.93L92.9 323.93L16.69 367.93L-59.52 323.93L-59.52 235.93zM169.11 -72.07L245.33 -28.07L245.33 59.93L169.11 103.93L92.9 59.93L92.9 -28.07zM321.54 -72.07L397.75 -28.07L397.75 59.93L321.54 103.93L245.33 59.93L245.33 -28.07zM397.75 59.93L473.96 103.93L473.96 191.93L397.75 235.93L321.54 191.93L321.54 103.93zM397.75 323.93L473.96 367.93L473.96 455.93L397.75 499.93L321.54 455.93L321.54 367.93zM321.54 455.93L397.75 499.93L397.75 587.93L321.54 631.93L245.33 587.93L245.33 499.93zM473.96 455.93L550.18 499.93L550.18 587.93L473.96 631.93L397.75 587.93L397.75 499.93zM626.39 191.93L702.6 235.93L702.6 323.93L626.39 367.93L550.18 323.93L550.18 235.93zM778.81 -72.07L855.03 -28.07L855.03 59.93L778.81 103.93L702.6 59.93L702.6 -28.07zM1159.88 59.93L1236.09 103.93L1236.09 191.93L1159.88 235.93L1083.66 191.93L1083.66 103.93zM1083.66 455.93L1159.88 499.93L1159.88 587.93L1083.66 631.93L1007.45 587.93L1007.45 499.93zM1312.3 323.93L1388.51 367.93L1388.51 455.93L1312.3 499.93L1236.09 455.93L1236.09 367.93zM1236.09 455.93L1312.3 499.93L1312.3 587.93L1236.09 631.93L1159.88 587.93L1159.88 499.93zM1464.73 59.93L1540.94 103.93L1540.94 191.93L1464.73 235.93L1388.51 191.93L1388.51 103.93z" stroke="rgba(255, 255, 255, 0.0784313725490196)" stroke-width="2"></path></g><defs><mask id="SvgjsMask1029"><rect width="1440" height="560" fill="#ffffff"></rect></mask></defs></svg>