<svg xmlns="http://www.w3.org/2000/svg" version="1.1" xmlns:xlink="http://www.w3.org/1999/xlink" xmlns:svgjs="http://svgjs.dev/svgjs" width="1440" height="560" preserveAspectRatio="none" viewBox="0 0 1440 560"><g mask="url(&quot;#SvgjsMask1024&quot;)" fill="none"><rect width="1440" height="560" x="0" y="0" fill="rgba(13, 13, 13, 1)"></rect><path d="M85.97 89.68L150.93 127.18L150.93 202.18L85.97 239.68L21.02 202.18L21.02 127.18zM85.97 314.68L150.93 352.18L150.93 427.18L85.97 464.68L21.02 427.18L21.02 352.18zM21.02 427.18L85.97 464.68L85.97 539.68L21.02 577.18L-43.93 539.68L-43.93 464.68zM85.97 539.68L150.93 577.18L150.93 652.18L85.97 689.68L21.02 652.18L21.02 577.18zM150.93 -22.82L215.88 14.68L215.88 89.68L150.93 127.18L85.97 89.68L85.97 14.68zM150.93 427.18L215.88 464.68L215.88 539.68L150.93 577.18L85.97 539.68L85.97 464.68zM475.7 314.68L540.65 352.18L540.65 427.18L475.7 464.68L410.74 427.18L410.74 352.18zM605.6 89.68L670.56 127.18L670.56 202.18L605.6 239.68L540.65 202.18L540.65 127.18zM670.56 -22.82L735.51 14.68L735.51 89.68L670.56 127.18L605.6 89.68L605.6 14.68zM670.56 427.18L735.51 464.68L735.51 539.68L670.56 577.18L605.6 539.68L605.6 464.68zM800.46 202.18L865.42 239.68L865.42 314.68L800.46 352.18L735.51 314.68L735.51 239.68zM1125.23 89.68L1190.19 127.18L1190.19 202.18L1125.23 239.68L1060.28 202.18L1060.28 127.18zM1060.28 427.18L1125.23 464.68L1125.23 539.68L1060.28 577.18L995.33 539.68L995.33 464.68zM1255.14 89.68L1320.09 127.18L1320.09 202.18L1255.14 239.68L1190.19 202.18L1190.19 127.18zM1255.14 314.68L1320.09 352.18L1320.09 427.18L1255.14 464.68L1190.19 427.18L1190.19 352.18zM1255.14 539.68L1320.09 577.18L1320.09 652.18L1255.14 689.68L1190.19 652.18L1190.19 577.18zM1514.96 89.68L1579.91 127.18L1579.91 202.18L1514.96 239.68L1450 202.18L1450 127.18zM1514.96 314.68L1579.91 352.18L1579.91 427.18L1514.96 464.68L1450 427.18L1450 352.18zM1514.96 539.68L1579.91 577.18L1579.91 652.18L1514.96 689.68L1450 652.18L1450 577.18z" stroke="rgba(255, 255, 255, 0.0784313725490196)" stroke-width="2"></path><path d="M966.98 -78.39L1043.19 -34.39L1043.19 53.61L966.98 97.61L890.77 53.61L890.77 -34.39zM1043.19 53.61L1119.4 97.61L1119.4 185.61L1043.19 229.61L966.98 185.61L966.98 97.61zM1195.62 317.61L1271.83 361.61L1271.83 449.61L1195.62 493.61L1119.4 449.61L1119.4 361.61zM1271.83 449.61L1348.04 493.61L1348.04 581.61L1271.83 625.61L1195.62 581.61L1195.62 493.61zM1500.47 317.61L1576.68 361.61L1576.68 449.61L1500.47 493.61L1424.25 449.61L1424.25 361.61zM1424.25 449.61L1500.47 493.61L1500.47 581.61L1424.25 625.61L1348.04 581.61L1348.04 493.61z" stroke="rgba(255, 255, 255, 0.0784313725490196)" stroke-width="2"></path></g><defs><mask id="SvgjsMask1024"><rect width="1440" height="560" fill="#ffffff"></rect></mask></defs></svg>