<svg xmlns="http://www.w3.org/2000/svg" version="1.1" xmlns:xlink="http://www.w3.org/1999/xlink" xmlns:svgjs="http://svgjs.dev/svgjs" width="1440" height="560" preserveAspectRatio="none" viewBox="0 0 1440 560"><g mask="url(&quot;#SvgjsMask1006&quot;)" fill="none"><rect width="1440" height="560" x="0" y="0" fill="rgba(13, 13, 13, 1)"></rect><path d="M-40.54 408.35L-40.54 408.35" stroke="rgba(255, 255, 255, 0.0784313725490196)" stroke-width="1.5"></path><path d="M-40.54 408.35L38.4 406.66" stroke="rgba(255, 255, 255, 0.0784313725490196)" stroke-width="1.5"></path><path d="M-40.54 408.35L-111.64 528.82" stroke="rgba(255, 255, 255, 0.0784313725490196)" stroke-width="1.5"></path><path d="M-40.54 408.35L66.86 523.6" stroke="rgba(255, 255, 255, 0.0784313725490196)" stroke-width="1.5"></path><path d="M-40.54 408.35L-52.41 658.98" stroke="rgba(255, 255, 255, 0.0784313725490196)" stroke-width="1.5"></path><path d="M-111.64 528.82L-111.64 528.82" stroke="rgba(255, 255, 255, 0.0784313725490196)" stroke-width="1.5"></path><path d="M-111.64 528.82L-52.41 658.98" stroke="rgba(255, 255, 255, 0.0784313725490196)" stroke-width="1.5"></path><path d="M-111.64 528.82L66.86 523.6" stroke="rgba(255, 255, 255, 0.0784313725490196)" stroke-width="1.5"></path><path d="M-111.64 528.82L38.4 406.66" stroke="rgba(255, 255, 255, 0.0784313725490196)" stroke-width="1.5"></path><path d="M-111.64 528.82L88.45 674.24" stroke="rgba(255, 255, 255, 0.0784313725490196)" stroke-width="1.5"></path><path d="M-111.64 528.82L227.07 490.59" stroke="rgba(255, 255, 255, 0.0784313725490196)" stroke-width="1.5"></path><path d="M-52.41 658.98L-52.41 658.98" stroke="rgba(255, 255, 255, 0.0784313725490196)" stroke-width="1.5"></path><path d="M-52.41 658.98L88.45 674.24" stroke="rgba(255, 255, 255, 0.0784313725490196)" stroke-width="1.5"></path><path d="M38.4 406.66L38.4 406.66" stroke="rgba(255, 255, 255, 0.0784313725490196)" stroke-width="1.5"></path><path d="M38.4 406.66L66.86 523.6" stroke="rgba(255, 255, 255, 0.0784313725490196)" stroke-width="1.5"></path><path d="M38.4 406.66L211.91 371.78" stroke="rgba(255, 255, 255, 0.0784313725490196)" stroke-width="1.5"></path><path d="M66.86 523.6L66.86 523.6" stroke="rgba(255, 255, 255, 0.0784313725490196)" stroke-width="1.5"></path><path d="M66.86 523.6L88.45 674.24" stroke="rgba(255, 255, 255, 0.0784313725490196)" stroke-width="1.5"></path><path d="M66.86 523.6L227.07 490.59" stroke="rgba(255, 255, 255, 0.0784313725490196)" stroke-width="1.5"></path><path d="M88.45 674.24L88.45 674.24" stroke="rgba(255, 255, 255, 0.0784313725490196)" stroke-width="1.5"></path><path d="M88.45 674.24L205.41 665.11" stroke="rgba(255, 255, 255, 0.0784313725490196)" stroke-width="1.5"></path><path d="M211.91 371.78L211.91 371.78" stroke="rgba(255, 255, 255, 0.0784313725490196)" stroke-width="1.5"></path><path d="M211.91 371.78L227.07 490.59" stroke="rgba(255, 255, 255, 0.0784313725490196)" stroke-width="1.5"></path><path d="M211.91 371.78L340.74 349.45" stroke="rgba(255, 255, 255, 0.0784313725490196)" stroke-width="1.5"></path><path d="M227.07 490.59L227.07 490.59" stroke="rgba(255, 255, 255, 0.0784313725490196)" stroke-width="1.5"></path><path d="M227.07 490.59L205.41 665.11" stroke="rgba(255, 255, 255, 0.0784313725490196)" stroke-width="1.5"></path><path d="M227.07 490.59L340.74 349.45" stroke="rgba(255, 255, 255, 0.0784313725490196)" stroke-width="1.5"></path><path d="M227.07 490.59L38.4 406.66" stroke="rgba(255, 255, 255, 0.0784313725490196)" stroke-width="1.5"></path><path d="M227.07 490.59L88.45 674.24" stroke="rgba(255, 255, 255, 0.0784313725490196)" stroke-width="1.5"></path><path d="M205.41 665.11L205.41 665.11" stroke="rgba(255, 255, 255, 0.0784313725490196)" stroke-width="1.5"></path><path d="M205.41 665.11L350.61 695.92" stroke="rgba(255, 255, 255, 0.0784313725490196)" stroke-width="1.5"></path><path d="M340.74 349.45L340.74 349.45" stroke="rgba(255, 255, 255, 0.0784313725490196)" stroke-width="1.5"></path><path d="M340.74 349.45L557.03 353.56" stroke="rgba(255, 255, 255, 0.0784313725490196)" stroke-width="1.5"></path><path d="M340.74 349.45L499.93 523.02" stroke="rgba(255, 255, 255, 0.0784313725490196)" stroke-width="1.5"></path><path d="M340.74 349.45L38.4 406.66" stroke="rgba(255, 255, 255, 0.0784313725490196)" stroke-width="1.5"></path><path d="M350.61 695.92L350.61 695.92" stroke="rgba(255, 255, 255, 0.0784313725490196)" stroke-width="1.5"></path><path d="M350.61 695.92L532.4 656.77" stroke="rgba(255, 255, 255, 0.0784313725490196)" stroke-width="1.5"></path><path d="M350.61 695.92L499.93 523.02" stroke="rgba(255, 255, 255, 0.0784313725490196)" stroke-width="1.5"></path><path d="M350.61 695.92L227.07 490.59" stroke="rgba(255, 255, 255, 0.0784313725490196)" stroke-width="1.5"></path><path d="M350.61 695.92L88.45 674.24" stroke="rgba(255, 255, 255, 0.0784313725490196)" stroke-width="1.5"></path><path d="M557.03 353.56L557.03 353.56" stroke="rgba(255, 255, 255, 0.0784313725490196)" stroke-width="1.5"></path><path d="M557.03 353.56L650.14 355.64" stroke="rgba(255, 255, 255, 0.0784313725490196)" stroke-width="1.5"></path><path d="M557.03 353.56L499.93 523.02" stroke="rgba(255, 255, 255, 0.0784313725490196)" stroke-width="1.5"></path><path d="M557.03 353.56L702.73 242.31" stroke="rgba(255, 255, 255, 0.0784313725490196)" stroke-width="1.5"></path><path d="M557.03 353.56L674.26 554.87" stroke="rgba(255, 255, 255, 0.0784313725490196)" stroke-width="1.5"></path><path d="M557.03 353.56L802.2 390.09" stroke="rgba(255, 255, 255, 0.0784313725490196)" stroke-width="1.5"></path><path d="M499.93 523.02L499.93 523.02" stroke="rgba(255, 255, 255, 0.0784313725490196)" stroke-width="1.5"></path><path d="M499.93 523.02L532.4 656.77" stroke="rgba(255, 255, 255, 0.0784313725490196)" stroke-width="1.5"></path><path d="M499.93 523.02L674.26 554.87" stroke="rgba(255, 255, 255, 0.0784313725490196)" stroke-width="1.5"></path><path d="M532.4 656.77L532.4 656.77" stroke="rgba(255, 255, 255, 0.0784313725490196)" stroke-width="1.5"></path><path d="M532.4 656.77L674.26 554.87" stroke="rgba(255, 255, 255, 0.0784313725490196)" stroke-width="1.5"></path><path d="M532.4 656.77L711.29 679.55" stroke="rgba(255, 255, 255, 0.0784313725490196)" stroke-width="1.5"></path><path d="M702.73 242.31L702.73 242.31" stroke="rgba(255, 255, 255, 0.0784313725490196)" stroke-width="1.5"></path><path d="M702.73 242.31L650.14 355.64" stroke="rgba(255, 255, 255, 0.0784313725490196)" stroke-width="1.5"></path><path d="M702.73 242.31L850.19 213.68" stroke="rgba(255, 255, 255, 0.0784313725490196)" stroke-width="1.5"></path><path d="M702.73 242.31L802.2 390.09" stroke="rgba(255, 255, 255, 0.0784313725490196)" stroke-width="1.5"></path><path d="M650.14 355.64L650.14 355.64" stroke="rgba(255, 255, 255, 0.0784313725490196)" stroke-width="1.5"></path><path d="M650.14 355.64L802.2 390.09" stroke="rgba(255, 255, 255, 0.0784313725490196)" stroke-width="1.5"></path><path d="M650.14 355.64L674.26 554.87" stroke="rgba(255, 255, 255, 0.0784313725490196)" stroke-width="1.5"></path><path d="M650.14 355.64L499.93 523.02" stroke="rgba(255, 255, 255, 0.0784313725490196)" stroke-width="1.5"></path><path d="M650.14 355.64L850.19 213.68" stroke="rgba(255, 255, 255, 0.0784313725490196)" stroke-width="1.5"></path><path d="M674.26 554.87L674.26 554.87" stroke="rgba(255, 255, 255, 0.0784313725490196)" stroke-width="1.5"></path><path d="M674.26 554.87L711.29 679.55" stroke="rgba(255, 255, 255, 0.0784313725490196)" stroke-width="1.5"></path><path d="M674.26 554.87L818.37 552.49" stroke="rgba(255, 255, 255, 0.0784313725490196)" stroke-width="1.5"></path><path d="M711.29 679.55L711.29 679.55" stroke="rgba(255, 255, 255, 0.0784313725490196)" stroke-width="1.5"></path><path d="M711.29 679.55L806.92 693.16" stroke="rgba(255, 255, 255, 0.0784313725490196)" stroke-width="1.5"></path><path d="M850.19 213.68L850.19 213.68" stroke="rgba(255, 255, 255, 0.0784313725490196)" stroke-width="1.5"></path><path d="M850.19 213.68L961.46 357.96" stroke="rgba(255, 255, 255, 0.0784313725490196)" stroke-width="1.5"></path><path d="M850.19 213.68L802.2 390.09" stroke="rgba(255, 255, 255, 0.0784313725490196)" stroke-width="1.5"></path><path d="M802.2 390.09L802.2 390.09" stroke="rgba(255, 255, 255, 0.0784313725490196)" stroke-width="1.5"></path><path d="M802.2 390.09L961.46 357.96" stroke="rgba(255, 255, 255, 0.0784313725490196)" stroke-width="1.5"></path><path d="M802.2 390.09L818.37 552.49" stroke="rgba(255, 255, 255, 0.0784313725490196)" stroke-width="1.5"></path><path d="M818.37 552.49L818.37 552.49" stroke="rgba(255, 255, 255, 0.0784313725490196)" stroke-width="1.5"></path><path d="M818.37 552.49L806.92 693.16" stroke="rgba(255, 255, 255, 0.0784313725490196)" stroke-width="1.5"></path><path d="M818.37 552.49L711.29 679.55" stroke="rgba(255, 255, 255, 0.0784313725490196)" stroke-width="1.5"></path><path d="M818.37 552.49L1008.61 555.11" stroke="rgba(255, 255, 255, 0.0784313725490196)" stroke-width="1.5"></path><path d="M806.92 693.16L806.92 693.16" stroke="rgba(255, 255, 255, 0.0784313725490196)" stroke-width="1.5"></path><path d="M806.92 693.16L972.15 670.42" stroke="rgba(255, 255, 255, 0.0784313725490196)" stroke-width="1.5"></path><path d="M806.92 693.16L674.26 554.87" stroke="rgba(255, 255, 255, 0.0784313725490196)" stroke-width="1.5"></path><path d="M806.92 693.16L1008.61 555.11" stroke="rgba(255, 255, 255, 0.0784313725490196)" stroke-width="1.5"></path><path d="M960.46 -107.06L960.46 -107.06" stroke="rgba(255, 255, 255, 0.0784313725490196)" stroke-width="1.5"></path><path d="M960.46 -107.06L1009.54 51.32" stroke="rgba(255, 255, 255, 0.0784313725490196)" stroke-width="1.5"></path><path d="M960.46 -107.06L1107.89 76.01" stroke="rgba(255, 255, 255, 0.0784313725490196)" stroke-width="1.5"></path><path d="M960.46 -107.06L1123.84 189.25" stroke="rgba(255, 255, 255, 0.0784313725490196)" stroke-width="1.5"></path><path d="M1009.54 51.32L1009.54 51.32" stroke="rgba(255, 255, 255, 0.0784313725490196)" stroke-width="1.5"></path><path d="M1009.54 51.32L1107.89 76.01" stroke="rgba(255, 255, 255, 0.0784313725490196)" stroke-width="1.5"></path><path d="M1009.54 51.32L1123.84 189.25" stroke="rgba(255, 255, 255, 0.0784313725490196)" stroke-width="1.5"></path><path d="M1009.54 51.32L850.19 213.68" stroke="rgba(255, 255, 255, 0.0784313725490196)" stroke-width="1.5"></path><path d="M1009.54 51.32L1242.37 205.27" stroke="rgba(255, 255, 255, 0.0784313725490196)" stroke-width="1.5"></path><path d="M961.46 357.96L961.46 357.96" stroke="rgba(255, 255, 255, 0.0784313725490196)" stroke-width="1.5"></path><path d="M961.46 357.96L1095.48 378.56" stroke="rgba(255, 255, 255, 0.0784313725490196)" stroke-width="1.5"></path><path d="M961.46 357.96L1008.61 555.11" stroke="rgba(255, 255, 255, 0.0784313725490196)" stroke-width="1.5"></path><path d="M961.46 357.96L1123.84 189.25" stroke="rgba(255, 255, 255, 0.0784313725490196)" stroke-width="1.5"></path><path d="M1008.61 555.11L1008.61 555.11" stroke="rgba(255, 255, 255, 0.0784313725490196)" stroke-width="1.5"></path><path d="M1008.61 555.11L1105.63 549.08" stroke="rgba(255, 255, 255, 0.0784313725490196)" stroke-width="1.5"></path><path d="M1008.61 555.11L972.15 670.42" stroke="rgba(255, 255, 255, 0.0784313725490196)" stroke-width="1.5"></path><path d="M1008.61 555.11L1110.3 695.54" stroke="rgba(255, 255, 255, 0.0784313725490196)" stroke-width="1.5"></path><path d="M1008.61 555.11L1095.48 378.56" stroke="rgba(255, 255, 255, 0.0784313725490196)" stroke-width="1.5"></path><path d="M972.15 670.42L972.15 670.42" stroke="rgba(255, 255, 255, 0.0784313725490196)" stroke-width="1.5"></path><path d="M972.15 670.42L1110.3 695.54" stroke="rgba(255, 255, 255, 0.0784313725490196)" stroke-width="1.5"></path><path d="M1107.89 76.01L1107.89 76.01" stroke="rgba(255, 255, 255, 0.0784313725490196)" stroke-width="1.5"></path><path d="M1107.89 76.01L1123.84 189.25" stroke="rgba(255, 255, 255, 0.0784313725490196)" stroke-width="1.5"></path><path d="M1107.89 76.01L1242.37 205.27" stroke="rgba(255, 255, 255, 0.0784313725490196)" stroke-width="1.5"></path><path d="M1107.89 76.01L1311.72 -44.12" stroke="rgba(255, 255, 255, 0.0784313725490196)" stroke-width="1.5"></path><path d="M1123.84 189.25L1123.84 189.25" stroke="rgba(255, 255, 255, 0.0784313725490196)" stroke-width="1.5"></path><path d="M1123.84 189.25L1242.37 205.27" stroke="rgba(255, 255, 255, 0.0784313725490196)" stroke-width="1.5"></path><path d="M1095.48 378.56L1095.48 378.56" stroke="rgba(255, 255, 255, 0.0784313725490196)" stroke-width="1.5"></path><path d="M1095.48 378.56L1105.63 549.08" stroke="rgba(255, 255, 255, 0.0784313725490196)" stroke-width="1.5"></path><path d="M1095.48 378.56L1266.41 379.07" stroke="rgba(255, 255, 255, 0.0784313725490196)" stroke-width="1.5"></path><path d="M1105.63 549.08L1105.63 549.08" stroke="rgba(255, 255, 255, 0.0784313725490196)" stroke-width="1.5"></path><path d="M1105.63 549.08L1240.8 551.81" stroke="rgba(255, 255, 255, 0.0784313725490196)" stroke-width="1.5"></path><path d="M1105.63 549.08L1110.3 695.54" stroke="rgba(255, 255, 255, 0.0784313725490196)" stroke-width="1.5"></path><path d="M1105.63 549.08L972.15 670.42" stroke="rgba(255, 255, 255, 0.0784313725490196)" stroke-width="1.5"></path><path d="M1105.63 549.08L1285.55 672.19" stroke="rgba(255, 255, 255, 0.0784313725490196)" stroke-width="1.5"></path><path d="M1110.3 695.54L1110.3 695.54" stroke="rgba(255, 255, 255, 0.0784313725490196)" stroke-width="1.5"></path><path d="M1110.3 695.54L1285.55 672.19" stroke="rgba(255, 255, 255, 0.0784313725490196)" stroke-width="1.5"></path><path d="M1110.3 695.54L1240.8 551.81" stroke="rgba(255, 255, 255, 0.0784313725490196)" stroke-width="1.5"></path><path d="M1110.3 695.54L1398.83 679.02" stroke="rgba(255, 255, 255, 0.0784313725490196)" stroke-width="1.5"></path><path d="M1311.72 -44.12L1311.72 -44.12" stroke="rgba(255, 255, 255, 0.0784313725490196)" stroke-width="1.5"></path><path d="M1311.72 -44.12L1394.49 -83.93" stroke="rgba(255, 255, 255, 0.0784313725490196)" stroke-width="1.5"></path><path d="M1311.72 -44.12L1388.34 104.4" stroke="rgba(255, 255, 255, 0.0784313725490196)" stroke-width="1.5"></path><path d="M1311.72 -44.12L1408.35 193.32" stroke="rgba(255, 255, 255, 0.0784313725490196)" stroke-width="1.5"></path><path d="M1311.72 -44.12L1242.37 205.27" stroke="rgba(255, 255, 255, 0.0784313725490196)" stroke-width="1.5"></path><path d="M1242.37 205.27L1242.37 205.27" stroke="rgba(255, 255, 255, 0.0784313725490196)" stroke-width="1.5"></path><path d="M1242.37 205.27L1408.35 193.32" stroke="rgba(255, 255, 255, 0.0784313725490196)" stroke-width="1.5"></path><path d="M1266.41 379.07L1266.41 379.07" stroke="rgba(255, 255, 255, 0.0784313725490196)" stroke-width="1.5"></path><path d="M1266.41 379.07L1402.25 348.61" stroke="rgba(255, 255, 255, 0.0784313725490196)" stroke-width="1.5"></path><path d="M1266.41 379.07L1240.8 551.81" stroke="rgba(255, 255, 255, 0.0784313725490196)" stroke-width="1.5"></path><path d="M1266.41 379.07L1242.37 205.27" stroke="rgba(255, 255, 255, 0.0784313725490196)" stroke-width="1.5"></path><path d="M1266.41 379.07L1406.81 536.35" stroke="rgba(255, 255, 255, 0.0784313725490196)" stroke-width="1.5"></path><path d="M1266.41 379.07L1408.35 193.32" stroke="rgba(255, 255, 255, 0.0784313725490196)" stroke-width="1.5"></path><path d="M1240.8 551.81L1240.8 551.81" stroke="rgba(255, 255, 255, 0.0784313725490196)" stroke-width="1.5"></path><path d="M1240.8 551.81L1285.55 672.19" stroke="rgba(255, 255, 255, 0.0784313725490196)" stroke-width="1.5"></path><path d="M1240.8 551.81L1406.81 536.35" stroke="rgba(255, 255, 255, 0.0784313725490196)" stroke-width="1.5"></path><path d="M1285.55 672.19L1285.55 672.19" stroke="rgba(255, 255, 255, 0.0784313725490196)" stroke-width="1.5"></path><path d="M1285.55 672.19L1398.83 679.02" stroke="rgba(255, 255, 255, 0.0784313725490196)" stroke-width="1.5"></path><path d="M1285.55 672.19L1406.81 536.35" stroke="rgba(255, 255, 255, 0.0784313725490196)" stroke-width="1.5"></path><path d="M1394.49 -83.93L1394.49 -83.93" stroke="rgba(255, 255, 255, 0.0784313725490196)" stroke-width="1.5"></path><path d="M1394.49 -83.93L1578.61 -93.65" stroke="rgba(255, 255, 255, 0.0784313725490196)" stroke-width="1.5"></path><path d="M1394.49 -83.93L1388.34 104.4" stroke="rgba(255, 255, 255, 0.0784313725490196)" stroke-width="1.5"></path><path d="M1394.49 -83.93L1553.11 96.12" stroke="rgba(255, 255, 255, 0.0784313725490196)" stroke-width="1.5"></path><path d="M1394.49 -83.93L1408.35 193.32" stroke="rgba(255, 255, 255, 0.0784313725490196)" stroke-width="1.5"></path><path d="M1394.49 -83.93L1242.37 205.27" stroke="rgba(255, 255, 255, 0.0784313725490196)" stroke-width="1.5"></path><path d="M1388.34 104.4L1388.34 104.4" stroke="rgba(255, 255, 255, 0.0784313725490196)" stroke-width="1.5"></path><path d="M1388.34 104.4L1408.35 193.32" stroke="rgba(255, 255, 255, 0.0784313725490196)" stroke-width="1.5"></path><path d="M1388.34 104.4L1553.11 96.12" stroke="rgba(255, 255, 255, 0.0784313725490196)" stroke-width="1.5"></path><path d="M1388.34 104.4L1242.37 205.27" stroke="rgba(255, 255, 255, 0.0784313725490196)" stroke-width="1.5"></path><path d="M1388.34 104.4L1598.15 201.21" stroke="rgba(255, 255, 255, 0.0784313725490196)" stroke-width="1.5"></path><path d="M1408.35 193.32L1408.35 193.32" stroke="rgba(255, 255, 255, 0.0784313725490196)" stroke-width="1.5"></path><path d="M1408.35 193.32L1402.25 348.61" stroke="rgba(255, 255, 255, 0.0784313725490196)" stroke-width="1.5"></path><path d="M1408.35 193.32L1553.11 96.12" stroke="rgba(255, 255, 255, 0.0784313725490196)" stroke-width="1.5"></path><path d="M1402.25 348.61L1402.25 348.61" stroke="rgba(255, 255, 255, 0.0784313725490196)" stroke-width="1.5"></path><path d="M1406.81 536.35L1406.81 536.35" stroke="rgba(255, 255, 255, 0.0784313725490196)" stroke-width="1.5"></path><path d="M1406.81 536.35L1398.83 679.02" stroke="rgba(255, 255, 255, 0.0784313725490196)" stroke-width="1.5"></path><path d="M1406.81 536.35L1585.49 514.71" stroke="rgba(255, 255, 255, 0.0784313725490196)" stroke-width="1.5"></path><path d="M1406.81 536.35L1402.25 348.61" stroke="rgba(255, 255, 255, 0.0784313725490196)" stroke-width="1.5"></path><path d="M1406.81 536.35L1541.25 672.09" stroke="rgba(255, 255, 255, 0.0784313725490196)" stroke-width="1.5"></path><path d="M1398.83 679.02L1398.83 679.02" stroke="rgba(255, 255, 255, 0.0784313725490196)" stroke-width="1.5"></path><path d="M1398.83 679.02L1541.25 672.09" stroke="rgba(255, 255, 255, 0.0784313725490196)" stroke-width="1.5"></path><path d="M1398.83 679.02L1240.8 551.81" stroke="rgba(255, 255, 255, 0.0784313725490196)" stroke-width="1.5"></path><path d="M1398.83 679.02L1585.49 514.71" stroke="rgba(255, 255, 255, 0.0784313725490196)" stroke-width="1.5"></path><path d="M1578.61 -93.65L1578.61 -93.65" stroke="rgba(255, 255, 255, 0.0784313725490196)" stroke-width="1.5"></path><path d="M1578.61 -93.65L1553.11 96.12" stroke="rgba(255, 255, 255, 0.0784313725490196)" stroke-width="1.5"></path><path d="M1578.61 -93.65L1311.72 -44.12" stroke="rgba(255, 255, 255, 0.0784313725490196)" stroke-width="1.5"></path><path d="M1578.61 -93.65L1388.34 104.4" stroke="rgba(255, 255, 255, 0.0784313725490196)" stroke-width="1.5"></path><path d="M1553.11 96.12L1553.11 96.12" stroke="rgba(255, 255, 255, 0.0784313725490196)" stroke-width="1.5"></path><path d="M1553.11 96.12L1598.15 201.21" stroke="rgba(255, 255, 255, 0.0784313725490196)" stroke-width="1.5"></path><path d="M1598.15 201.21L1598.15 201.21" stroke="rgba(255, 255, 255, 0.0784313725490196)" stroke-width="1.5"></path><path d="M1598.15 201.21L1408.35 193.32" stroke="rgba(255, 255, 255, 0.0784313725490196)" stroke-width="1.5"></path><path d="M1598.15 201.21L1551.28 393.02" stroke="rgba(255, 255, 255, 0.0784313725490196)" stroke-width="1.5"></path><path d="M1598.15 201.21L1402.25 348.61" stroke="rgba(255, 255, 255, 0.0784313725490196)" stroke-width="1.5"></path><path d="M1551.28 393.02L1551.28 393.02" stroke="rgba(255, 255, 255, 0.0784313725490196)" stroke-width="1.5"></path><path d="M1551.28 393.02L1585.49 514.71" stroke="rgba(255, 255, 255, 0.0784313725490196)" stroke-width="1.5"></path><path d="M1551.28 393.02L1402.25 348.61" stroke="rgba(255, 255, 255, 0.0784313725490196)" stroke-width="1.5"></path><path d="M1551.28 393.02L1406.81 536.35" stroke="rgba(255, 255, 255, 0.0784313725490196)" stroke-width="1.5"></path><path d="M1551.28 393.02L1408.35 193.32" stroke="rgba(255, 255, 255, 0.0784313725490196)" stroke-width="1.5"></path><path d="M1585.49 514.71L1585.49 514.71" stroke="rgba(255, 255, 255, 0.0784313725490196)" stroke-width="1.5"></path><path d="M1585.49 514.71L1541.25 672.09" stroke="rgba(255, 255, 255, 0.0784313725490196)" stroke-width="1.5"></path><path d="M1585.49 514.71L1402.25 348.61" stroke="rgba(255, 255, 255, 0.0784313725490196)" stroke-width="1.5"></path><path d="M1585.49 514.71L1598.15 201.21" stroke="rgba(255, 255, 255, 0.0784313725490196)" stroke-width="1.5"></path><path d="M1541.25 672.09L1541.25 672.09" stroke="rgba(255, 255, 255, 0.0784313725490196)" stroke-width="1.5"></path><path d="M1541.25 672.09L1285.55 672.19" stroke="rgba(255, 255, 255, 0.0784313725490196)" stroke-width="1.5"></path><path d="M1541.25 672.09L1551.28 393.02" stroke="rgba(255, 255, 255, 0.0784313725490196)" stroke-width="1.5"></path><path d="M1541.25 672.09L1240.8 551.81" stroke="rgba(255, 255, 255, 0.0784313725490196)" stroke-width="1.5"></path><circle r="5" cx="-40.54" cy="408.35" fill="rgba(255, 255, 255, 0.0784313725490196)"></circle><circle r="5" cx="-111.64" cy="528.82" fill="rgba(255, 255, 255, 0.0784313725490196)"></circle><circle r="5" cx="-52.41" cy="658.98" fill="rgba(255, 255, 255, 0.0784313725490196)"></circle><circle r="5" cx="38.4" cy="406.66" fill="rgba(255, 255, 255, 0.0784313725490196)"></circle><circle r="5" cx="66.86" cy="523.6" fill="rgba(255, 255, 255, 0.0784313725490196)"></circle><circle r="5" cx="88.45" cy="674.24" fill="rgba(255, 255, 255, 0.0784313725490196)"></circle><circle r="5" cx="211.91" cy="371.78" fill="rgba(255, 255, 255, 0.0784313725490196)"></circle><circle r="5" cx="227.07" cy="490.59" fill="rgba(255, 255, 255, 0.0784313725490196)"></circle><circle r="5" cx="205.41" cy="665.11" fill="rgba(255, 255, 255, 0.0784313725490196)"></circle><circle r="5" cx="340.74" cy="349.45" fill="rgba(255, 255, 255, 0.0784313725490196)"></circle><circle r="5" cx="350.61" cy="695.92" fill="rgba(255, 255, 255, 0.0784313725490196)"></circle><circle r="5" cx="557.03" cy="353.56" fill="rgba(255, 255, 255, 0.0784313725490196)"></circle><circle r="5" cx="499.93" cy="523.02" fill="rgba(255, 255, 255, 0.0784313725490196)"></circle><circle r="5" cx="532.4" cy="656.77" fill="rgba(255, 255, 255, 0.0784313725490196)"></circle><circle r="5" cx="702.73" cy="242.31" fill="rgba(255, 255, 255, 0.0784313725490196)"></circle><circle r="5" cx="650.14" cy="355.64" fill="rgba(255, 255, 255, 0.0784313725490196)"></circle><circle r="5" cx="674.26" cy="554.87" fill="rgba(255, 255, 255, 0.0784313725490196)"></circle><circle r="5" cx="711.29" cy="679.55" fill="rgba(255, 255, 255, 0.0784313725490196)"></circle><circle r="5" cx="850.19" cy="213.68" fill="rgba(255, 255, 255, 0.0784313725490196)"></circle><circle r="5" cx="802.2" cy="390.09" fill="rgba(255, 255, 255, 0.0784313725490196)"></circle><circle r="5" cx="818.37" cy="552.49" fill="rgba(255, 255, 255, 0.0784313725490196)"></circle><circle r="5" cx="806.92" cy="693.16" fill="rgba(255, 255, 255, 0.0784313725490196)"></circle><circle r="5" cx="960.46" cy="-107.06" fill="rgba(255, 255, 255, 0.0784313725490196)"></circle><circle r="5" cx="1009.54" cy="51.32" fill="rgba(255, 255, 255, 0.0784313725490196)"></circle><circle r="5" cx="961.46" cy="357.96" fill="rgba(255, 255, 255, 0.0784313725490196)"></circle><circle r="5" cx="1008.61" cy="555.11" fill="rgba(255, 255, 255, 0.0784313725490196)"></circle><circle r="5" cx="972.15" cy="670.42" fill="rgba(255, 255, 255, 0.0784313725490196)"></circle><circle r="5" cx="1107.89" cy="76.01" fill="rgba(255, 255, 255, 0.0784313725490196)"></circle><circle r="5" cx="1123.84" cy="189.25" fill="rgba(255, 255, 255, 0.0784313725490196)"></circle><circle r="5" cx="1095.48" cy="378.56" fill="rgba(255, 255, 255, 0.0784313725490196)"></circle><circle r="5" cx="1105.63" cy="549.08" fill="rgba(255, 255, 255, 0.0784313725490196)"></circle><circle r="5" cx="1110.3" cy="695.54" fill="rgba(255, 255, 255, 0.0784313725490196)"></circle><circle r="5" cx="1311.72" cy="-44.12" fill="rgba(255, 255, 255, 0.0784313725490196)"></circle><circle r="5" cx="1242.37" cy="205.27" fill="rgba(255, 255, 255, 0.0784313725490196)"></circle><circle r="5" cx="1266.41" cy="379.07" fill="rgba(255, 255, 255, 0.0784313725490196)"></circle><circle r="5" cx="1240.8" cy="551.81" fill="rgba(255, 255, 255, 0.0784313725490196)"></circle><circle r="5" cx="1285.55" cy="672.19" fill="rgba(255, 255, 255, 0.0784313725490196)"></circle><circle r="5" cx="1394.49" cy="-83.93" fill="rgba(255, 255, 255, 0.0784313725490196)"></circle><circle r="5" cx="1388.34" cy="104.4" fill="rgba(255, 255, 255, 0.0784313725490196)"></circle><circle r="5" cx="1408.35" cy="193.32" fill="rgba(255, 255, 255, 0.0784313725490196)"></circle><circle r="5" cx="1402.25" cy="348.61" fill="rgba(255, 255, 255, 0.0784313725490196)"></circle><circle r="5" cx="1406.81" cy="536.35" fill="rgba(255, 255, 255, 0.0784313725490196)"></circle><circle r="5" cx="1398.83" cy="679.02" fill="rgba(255, 255, 255, 0.0784313725490196)"></circle><circle r="5" cx="1578.61" cy="-93.65" fill="rgba(255, 255, 255, 0.0784313725490196)"></circle><circle r="5" cx="1553.11" cy="96.12" fill="rgba(255, 255, 255, 0.0784313725490196)"></circle><circle r="5" cx="1598.15" cy="201.21" fill="rgba(255, 255, 255, 0.0784313725490196)"></circle><circle r="5" cx="1551.28" cy="393.02" fill="rgba(255, 255, 255, 0.0784313725490196)"></circle><circle r="5" cx="1585.49" cy="514.71" fill="rgba(255, 255, 255, 0.0784313725490196)"></circle><circle r="5" cx="1541.25" cy="672.09" fill="rgba(255, 255, 255, 0.0784313725490196)"></circle><path d="M-70.79 677.81L-70.79 677.81" stroke="hsla(0, 0%, 100%, 0.0784313725490196)" stroke-width="1.5"></path><path d="M-70.79 677.81L72.68 674.29" stroke="hsla(0, 0%, 100%, 0.0784313725490196)" stroke-width="1.5"></path><path d="M-70.79 677.81L-88.99 509.02" stroke="hsla(0, 0%, 100%, 0.0784313725490196)" stroke-width="1.5"></path><path d="M408.84 691.09L408.84 691.09" stroke="hsla(0, 0%, 100%, 0.0784313725490196)" stroke-width="1.5"></path><path d="M408.84 691.09L538.53 706.87" stroke="hsla(0, 0%, 100%, 0.0784313725490196)" stroke-width="1.5"></path><path d="M408.84 691.09L404.66 507.89" stroke="hsla(0, 0%, 100%, 0.0784313725490196)" stroke-width="1.5"></path><path d="M408.84 691.09L214.54 656.39" stroke="hsla(0, 0%, 100%, 0.0784313725490196)" stroke-width="1.5"></path><path d="M408.84 691.09L561.11 540.1" stroke="hsla(0, 0%, 100%, 0.0784313725490196)" stroke-width="1.5"></path><path d="M408.84 691.09L254.71 495.14" stroke="hsla(0, 0%, 100%, 0.0784313725490196)" stroke-width="1.5"></path><path d="M538.53 706.87L538.53 706.87" stroke="hsla(0, 0%, 100%, 0.0784313725490196)" stroke-width="1.5"></path><path d="M538.53 706.87L692.47 658.78" stroke="hsla(0, 0%, 100%, 0.0784313725490196)" stroke-width="1.5"></path><path d="M538.53 706.87L561.11 540.1" stroke="hsla(0, 0%, 100%, 0.0784313725490196)" stroke-width="1.5"></path><path d="M538.53 706.87L404.66 507.89" stroke="hsla(0, 0%, 100%, 0.0784313725490196)" stroke-width="1.5"></path><path d="M538.53 706.87L708.11 513.01" stroke="hsla(0, 0%, 100%, 0.0784313725490196)" stroke-width="1.5"></path><path d="M692.47 658.78L692.47 658.78" stroke="hsla(0, 0%, 100%, 0.0784313725490196)" stroke-width="1.5"></path><path d="M692.47 658.78L822.58 646.22" stroke="hsla(0, 0%, 100%, 0.0784313725490196)" stroke-width="1.5"></path><path d="M692.47 658.78L708.11 513.01" stroke="hsla(0, 0%, 100%, 0.0784313725490196)" stroke-width="1.5"></path><path d="M692.47 658.78L798.75 541.85" stroke="hsla(0, 0%, 100%, 0.0784313725490196)" stroke-width="1.5"></path><path d="M1147.75 51.15L1147.75 51.15" stroke="hsla(0, 0%, 100%, 0.0784313725490196)" stroke-width="1.5"></path><path d="M1147.75 51.15L1276.24 80.41" stroke="hsla(0, 0%, 100%, 0.0784313725490196)" stroke-width="1.5"></path><path d="M1147.75 51.15L1287.32 -44.05" stroke="hsla(0, 0%, 100%, 0.0784313725490196)" stroke-width="1.5"></path><path d="M1141.54 358.86L1141.54 358.86" stroke="hsla(0, 0%, 100%, 0.0784313725490196)" stroke-width="1.5"></path><path d="M1141.54 358.86L1254.5 367.03" stroke="hsla(0, 0%, 100%, 0.0784313725490196)" stroke-width="1.5"></path><path d="M1141.54 358.86L1136.14 227.92" stroke="hsla(0, 0%, 100%, 0.0784313725490196)" stroke-width="1.5"></path><path d="M1099.26 512.14L1099.26 512.14" stroke="hsla(0, 0%, 100%, 0.0784313725490196)" stroke-width="1.5"></path><path d="M1099.26 512.14L994.12 551.52" stroke="hsla(0, 0%, 100%, 0.0784313725490196)" stroke-width="1.5"></path><path d="M1099.26 512.14L1106.59 665.14" stroke="hsla(0, 0%, 100%, 0.0784313725490196)" stroke-width="1.5"></path><path d="M1099.26 512.14L1141.54 358.86" stroke="hsla(0, 0%, 100%, 0.0784313725490196)" stroke-width="1.5"></path><path d="M1099.26 512.14L1267.81 495.72" stroke="hsla(0, 0%, 100%, 0.0784313725490196)" stroke-width="1.5"></path><path d="M1099.26 512.14L986.42 350.85" stroke="hsla(0, 0%, 100%, 0.0784313725490196)" stroke-width="1.5"></path><path d="M1099.26 512.14L1254.5 367.03" stroke="hsla(0, 0%, 100%, 0.0784313725490196)" stroke-width="1.5"></path><path d="M1106.59 665.14L1106.59 665.14" stroke="hsla(0, 0%, 100%, 0.0784313725490196)" stroke-width="1.5"></path><path d="M1106.59 665.14L994.12 551.52" stroke="hsla(0, 0%, 100%, 0.0784313725490196)" stroke-width="1.5"></path><path d="M1106.59 665.14L946.58 704.88" stroke="hsla(0, 0%, 100%, 0.0784313725490196)" stroke-width="1.5"></path><path d="M1106.59 665.14L1298.32 665.17" stroke="hsla(0, 0%, 100%, 0.0784313725490196)" stroke-width="1.5"></path><path d="M1106.59 665.14L1267.81 495.72" stroke="hsla(0, 0%, 100%, 0.0784313725490196)" stroke-width="1.5"></path><path d="M1287.32 -44.05L1287.32 -44.05" stroke="hsla(0, 0%, 100%, 0.0784313725490196)" stroke-width="1.5"></path><path d="M1287.32 -44.05L1276.24 80.41" stroke="hsla(0, 0%, 100%, 0.0784313725490196)" stroke-width="1.5"></path><path d="M1287.32 -44.05L1447.01 -65.49" stroke="hsla(0, 0%, 100%, 0.0784313725490196)" stroke-width="1.5"></path><path d="M1287.32 -44.05L1429.21 105.1" stroke="hsla(0, 0%, 100%, 0.0784313725490196)" stroke-width="1.5"></path><path d="M1574.34 224.83L1574.34 224.83" stroke="hsla(0, 0%, 100%, 0.0784313725490196)" stroke-width="1.5"></path><path d="M1574.34 224.83L1556.6 100.76" stroke="hsla(0, 0%, 100%, 0.0784313725490196)" stroke-width="1.5"></path><path d="M1574.34 224.83L1441.4 251.86" stroke="hsla(0, 0%, 100%, 0.0784313725490196)" stroke-width="1.5"></path><path d="M1574.34 224.83L1543.9 406.78" stroke="hsla(0, 0%, 100%, 0.0784313725490196)" stroke-width="1.5"></path><path d="M1574.34 224.83L1429.21 105.1" stroke="hsla(0, 0%, 100%, 0.0784313725490196)" stroke-width="1.5"></path><path d="M1574.34 224.83L1462.19 386.05" stroke="hsla(0, 0%, 100%, 0.0784313725490196)" stroke-width="1.5"></path><path d="M-88.99 509.02L-88.99 509.02" stroke="hsla(0, 0%, 100%, 0.0784313725490196)" stroke-width="1.5"></path><path d="M-88.99 509.02L85.22 496.19" stroke="hsla(0, 0%, 100%, 0.0784313725490196)" stroke-width="1.5"></path><path d="M-88.99 509.02L72.68 674.29" stroke="hsla(0, 0%, 100%, 0.0784313725490196)" stroke-width="1.5"></path><path d="M-88.99 509.02L214.54 656.39" stroke="hsla(0, 0%, 100%, 0.0784313725490196)" stroke-width="1.5"></path><path d="M-88.99 509.02L254.71 495.14" stroke="hsla(0, 0%, 100%, 0.0784313725490196)" stroke-width="1.5"></path><path d="M85.22 496.19L85.22 496.19" stroke="hsla(0, 0%, 100%, 0.0784313725490196)" stroke-width="1.5"></path><path d="M85.22 496.19L254.71 495.14" stroke="hsla(0, 0%, 100%, 0.0784313725490196)" stroke-width="1.5"></path><path d="M72.68 674.29L72.68 674.29" stroke="hsla(0, 0%, 100%, 0.0784313725490196)" stroke-width="1.5"></path><path d="M72.68 674.29L214.54 656.39" stroke="hsla(0, 0%, 100%, 0.0784313725490196)" stroke-width="1.5"></path><path d="M72.68 674.29L85.22 496.19" stroke="hsla(0, 0%, 100%, 0.0784313725490196)" stroke-width="1.5"></path><path d="M72.68 674.29L254.71 495.14" stroke="hsla(0, 0%, 100%, 0.0784313725490196)" stroke-width="1.5"></path><path d="M72.68 674.29L408.84 691.09" stroke="hsla(0, 0%, 100%, 0.0784313725490196)" stroke-width="1.5"></path><path d="M254.71 495.14L254.71 495.14" stroke="hsla(0, 0%, 100%, 0.0784313725490196)" stroke-width="1.5"></path><path d="M254.71 495.14L404.66 507.89" stroke="hsla(0, 0%, 100%, 0.0784313725490196)" stroke-width="1.5"></path><path d="M254.71 495.14L214.54 656.39" stroke="hsla(0, 0%, 100%, 0.0784313725490196)" stroke-width="1.5"></path><path d="M214.54 656.39L214.54 656.39" stroke="hsla(0, 0%, 100%, 0.0784313725490196)" stroke-width="1.5"></path><path d="M404.66 507.89L404.66 507.89" stroke="hsla(0, 0%, 100%, 0.0784313725490196)" stroke-width="1.5"></path><path d="M404.66 507.89L561.11 540.1" stroke="hsla(0, 0%, 100%, 0.0784313725490196)" stroke-width="1.5"></path><path d="M561.11 540.1L561.11 540.1" stroke="hsla(0, 0%, 100%, 0.0784313725490196)" stroke-width="1.5"></path><path d="M561.11 540.1L708.11 513.01" stroke="hsla(0, 0%, 100%, 0.0784313725490196)" stroke-width="1.5"></path><path d="M561.11 540.1L692.47 658.78" stroke="hsla(0, 0%, 100%, 0.0784313725490196)" stroke-width="1.5"></path><path d="M708.11 513.01L708.11 513.01" stroke="hsla(0, 0%, 100%, 0.0784313725490196)" stroke-width="1.5"></path><path d="M708.11 513.01L798.75 541.85" stroke="hsla(0, 0%, 100%, 0.0784313725490196)" stroke-width="1.5"></path><path d="M708.11 513.01L811.39 378.17" stroke="hsla(0, 0%, 100%, 0.0784313725490196)" stroke-width="1.5"></path><path d="M708.11 513.01L822.58 646.22" stroke="hsla(0, 0%, 100%, 0.0784313725490196)" stroke-width="1.5"></path><path d="M811.39 378.17L811.39 378.17" stroke="hsla(0, 0%, 100%, 0.0784313725490196)" stroke-width="1.5"></path><path d="M811.39 378.17L798.75 541.85" stroke="hsla(0, 0%, 100%, 0.0784313725490196)" stroke-width="1.5"></path><path d="M811.39 378.17L986.42 350.85" stroke="hsla(0, 0%, 100%, 0.0784313725490196)" stroke-width="1.5"></path><path d="M811.39 378.17L994.12 551.52" stroke="hsla(0, 0%, 100%, 0.0784313725490196)" stroke-width="1.5"></path><path d="M798.75 541.85L798.75 541.85" stroke="hsla(0, 0%, 100%, 0.0784313725490196)" stroke-width="1.5"></path><path d="M798.75 541.85L822.58 646.22" stroke="hsla(0, 0%, 100%, 0.0784313725490196)" stroke-width="1.5"></path><path d="M798.75 541.85L994.12 551.52" stroke="hsla(0, 0%, 100%, 0.0784313725490196)" stroke-width="1.5"></path><path d="M822.58 646.22L822.58 646.22" stroke="hsla(0, 0%, 100%, 0.0784313725490196)" stroke-width="1.5"></path><path d="M822.58 646.22L946.58 704.88" stroke="hsla(0, 0%, 100%, 0.0784313725490196)" stroke-width="1.5"></path><path d="M986.42 350.85L986.42 350.85" stroke="hsla(0, 0%, 100%, 0.0784313725490196)" stroke-width="1.5"></path><path d="M986.42 350.85L1141.54 358.86" stroke="hsla(0, 0%, 100%, 0.0784313725490196)" stroke-width="1.5"></path><path d="M986.42 350.85L1136.14 227.92" stroke="hsla(0, 0%, 100%, 0.0784313725490196)" stroke-width="1.5"></path><path d="M994.12 551.52L994.12 551.52" stroke="hsla(0, 0%, 100%, 0.0784313725490196)" stroke-width="1.5"></path><path d="M994.12 551.52L946.58 704.88" stroke="hsla(0, 0%, 100%, 0.0784313725490196)" stroke-width="1.5"></path><path d="M994.12 551.52L822.58 646.22" stroke="hsla(0, 0%, 100%, 0.0784313725490196)" stroke-width="1.5"></path><path d="M994.12 551.52L986.42 350.85" stroke="hsla(0, 0%, 100%, 0.0784313725490196)" stroke-width="1.5"></path><path d="M946.58 704.88L946.58 704.88" stroke="hsla(0, 0%, 100%, 0.0784313725490196)" stroke-width="1.5"></path><path d="M946.58 704.88L798.75 541.85" stroke="hsla(0, 0%, 100%, 0.0784313725490196)" stroke-width="1.5"></path><path d="M1136.14 227.92L1136.14 227.92" stroke="hsla(0, 0%, 100%, 0.0784313725490196)" stroke-width="1.5"></path><path d="M1136.14 227.92L1242.59 193.9" stroke="hsla(0, 0%, 100%, 0.0784313725490196)" stroke-width="1.5"></path><path d="M1136.14 227.92L1147.75 51.15" stroke="hsla(0, 0%, 100%, 0.0784313725490196)" stroke-width="1.5"></path><path d="M1136.14 227.92L1254.5 367.03" stroke="hsla(0, 0%, 100%, 0.0784313725490196)" stroke-width="1.5"></path><path d="M1276.24 80.41L1276.24 80.41" stroke="hsla(0, 0%, 100%, 0.0784313725490196)" stroke-width="1.5"></path><path d="M1276.24 80.41L1242.59 193.9" stroke="hsla(0, 0%, 100%, 0.0784313725490196)" stroke-width="1.5"></path><path d="M1276.24 80.41L1429.21 105.1" stroke="hsla(0, 0%, 100%, 0.0784313725490196)" stroke-width="1.5"></path><path d="M1276.24 80.41L1136.14 227.92" stroke="hsla(0, 0%, 100%, 0.0784313725490196)" stroke-width="1.5"></path><path d="M1242.59 193.9L1242.59 193.9" stroke="hsla(0, 0%, 100%, 0.0784313725490196)" stroke-width="1.5"></path><path d="M1242.59 193.9L1147.75 51.15" stroke="hsla(0, 0%, 100%, 0.0784313725490196)" stroke-width="1.5"></path><path d="M1242.59 193.9L1254.5 367.03" stroke="hsla(0, 0%, 100%, 0.0784313725490196)" stroke-width="1.5"></path><path d="M1254.5 367.03L1254.5 367.03" stroke="hsla(0, 0%, 100%, 0.0784313725490196)" stroke-width="1.5"></path><path d="M1254.5 367.03L1267.81 495.72" stroke="hsla(0, 0%, 100%, 0.0784313725490196)" stroke-width="1.5"></path><path d="M1267.81 495.72L1267.81 495.72" stroke="hsla(0, 0%, 100%, 0.0784313725490196)" stroke-width="1.5"></path><path d="M1267.81 495.72L1405.89 495.43" stroke="hsla(0, 0%, 100%, 0.0784313725490196)" stroke-width="1.5"></path><path d="M1267.81 495.72L1298.32 665.17" stroke="hsla(0, 0%, 100%, 0.0784313725490196)" stroke-width="1.5"></path><path d="M1267.81 495.72L1141.54 358.86" stroke="hsla(0, 0%, 100%, 0.0784313725490196)" stroke-width="1.5"></path><path d="M1267.81 495.72L1462.19 386.05" stroke="hsla(0, 0%, 100%, 0.0784313725490196)" stroke-width="1.5"></path><path d="M1298.32 665.17L1298.32 665.17" stroke="hsla(0, 0%, 100%, 0.0784313725490196)" stroke-width="1.5"></path><path d="M1298.32 665.17L1414.32 692.35" stroke="hsla(0, 0%, 100%, 0.0784313725490196)" stroke-width="1.5"></path><path d="M1447.01 -65.49L1447.01 -65.49" stroke="hsla(0, 0%, 100%, 0.0784313725490196)" stroke-width="1.5"></path><path d="M1429.21 105.1L1429.21 105.1" stroke="hsla(0, 0%, 100%, 0.0784313725490196)" stroke-width="1.5"></path><path d="M1429.21 105.1L1556.6 100.76" stroke="hsla(0, 0%, 100%, 0.0784313725490196)" stroke-width="1.5"></path><path d="M1429.21 105.1L1441.4 251.86" stroke="hsla(0, 0%, 100%, 0.0784313725490196)" stroke-width="1.5"></path><path d="M1429.21 105.1L1447.01 -65.49" stroke="hsla(0, 0%, 100%, 0.0784313725490196)" stroke-width="1.5"></path><path d="M1441.4 251.86L1441.4 251.86" stroke="hsla(0, 0%, 100%, 0.0784313725490196)" stroke-width="1.5"></path><path d="M1441.4 251.86L1462.19 386.05" stroke="hsla(0, 0%, 100%, 0.0784313725490196)" stroke-width="1.5"></path><path d="M1462.19 386.05L1462.19 386.05" stroke="hsla(0, 0%, 100%, 0.0784313725490196)" stroke-width="1.5"></path><path d="M1462.19 386.05L1543.9 406.78" stroke="hsla(0, 0%, 100%, 0.0784313725490196)" stroke-width="1.5"></path><path d="M1462.19 386.05L1405.89 495.43" stroke="hsla(0, 0%, 100%, 0.0784313725490196)" stroke-width="1.5"></path><path d="M1462.19 386.05L1549.19 521.57" stroke="hsla(0, 0%, 100%, 0.0784313725490196)" stroke-width="1.5"></path><path d="M1405.89 495.43L1405.89 495.43" stroke="hsla(0, 0%, 100%, 0.0784313725490196)" stroke-width="1.5"></path><path d="M1414.32 692.35L1414.32 692.35" stroke="hsla(0, 0%, 100%, 0.0784313725490196)" stroke-width="1.5"></path><path d="M1414.32 692.35L1569.72 677.25" stroke="hsla(0, 0%, 100%, 0.0784313725490196)" stroke-width="1.5"></path><path d="M1414.32 692.35L1405.89 495.43" stroke="hsla(0, 0%, 100%, 0.0784313725490196)" stroke-width="1.5"></path><path d="M1414.32 692.35L1549.19 521.57" stroke="hsla(0, 0%, 100%, 0.0784313725490196)" stroke-width="1.5"></path><path d="M1414.32 692.35L1267.81 495.72" stroke="hsla(0, 0%, 100%, 0.0784313725490196)" stroke-width="1.5"></path><path d="M1556.6 100.76L1556.6 100.76" stroke="hsla(0, 0%, 100%, 0.0784313725490196)" stroke-width="1.5"></path><path d="M1556.6 100.76L1441.4 251.86" stroke="hsla(0, 0%, 100%, 0.0784313725490196)" stroke-width="1.5"></path><path d="M1556.6 100.76L1447.01 -65.49" stroke="hsla(0, 0%, 100%, 0.0784313725490196)" stroke-width="1.5"></path><path d="M1556.6 100.76L1276.24 80.41" stroke="hsla(0, 0%, 100%, 0.0784313725490196)" stroke-width="1.5"></path><path d="M1556.6 100.76L1462.19 386.05" stroke="hsla(0, 0%, 100%, 0.0784313725490196)" stroke-width="1.5"></path><path d="M1543.9 406.78L1543.9 406.78" stroke="hsla(0, 0%, 100%, 0.0784313725490196)" stroke-width="1.5"></path><path d="M1543.9 406.78L1549.19 521.57" stroke="hsla(0, 0%, 100%, 0.0784313725490196)" stroke-width="1.5"></path><path d="M1543.9 406.78L1405.89 495.43" stroke="hsla(0, 0%, 100%, 0.0784313725490196)" stroke-width="1.5"></path><path d="M1549.19 521.57L1549.19 521.57" stroke="hsla(0, 0%, 100%, 0.0784313725490196)" stroke-width="1.5"></path><path d="M1549.19 521.57L1405.89 495.43" stroke="hsla(0, 0%, 100%, 0.0784313725490196)" stroke-width="1.5"></path><path d="M1549.19 521.57L1569.72 677.25" stroke="hsla(0, 0%, 100%, 0.0784313725490196)" stroke-width="1.5"></path><path d="M1569.72 677.25L1569.72 677.25" stroke="hsla(0, 0%, 100%, 0.0784313725490196)" stroke-width="1.5"></path><path d="M1569.72 677.25L1405.89 495.43" stroke="hsla(0, 0%, 100%, 0.0784313725490196)" stroke-width="1.5"></path><path d="M1569.72 677.25L1298.32 665.17" stroke="hsla(0, 0%, 100%, 0.0784313725490196)" stroke-width="1.5"></path><path d="M1569.72 677.25L1543.9 406.78" stroke="hsla(0, 0%, 100%, 0.0784313725490196)" stroke-width="1.5"></path><circle r="25" cx="-70.79" cy="677.81" fill="url(&quot;#SvgjsRadialGradient1007&quot;)"></circle><circle r="25" cx="408.84" cy="691.09" fill="url(&quot;#SvgjsRadialGradient1007&quot;)"></circle><circle r="25" cx="538.53" cy="706.87" fill="url(&quot;#SvgjsRadialGradient1007&quot;)"></circle><circle r="25" cx="692.47" cy="658.78" fill="url(&quot;#SvgjsRadialGradient1007&quot;)"></circle><circle r="25" cx="1147.75" cy="51.15" fill="url(&quot;#SvgjsRadialGradient1007&quot;)"></circle><circle r="25" cx="1141.54" cy="358.86" fill="url(&quot;#SvgjsRadialGradient1007&quot;)"></circle><circle r="25" cx="1099.26" cy="512.14" fill="url(&quot;#SvgjsRadialGradient1007&quot;)"></circle><circle r="25" cx="1106.59" cy="665.14" fill="url(&quot;#SvgjsRadialGradient1007&quot;)"></circle><circle r="25" cx="1287.32" cy="-44.05" fill="url(&quot;#SvgjsRadialGradient1007&quot;)"></circle><circle r="25" cx="1574.34" cy="224.83" fill="url(&quot;#SvgjsRadialGradient1007&quot;)"></circle><circle r="5" cx="-88.99" cy="509.02" fill="rgba(255, 255, 255, 0.5392156862745098)"></circle><circle r="5" cx="85.22" cy="496.19" fill="rgba(255, 255, 255, 0.5392156862745098)"></circle><circle r="5" cx="72.68" cy="674.29" fill="rgba(255, 255, 255, 0.5392156862745098)"></circle><circle r="5" cx="254.71" cy="495.14" fill="rgba(255, 255, 255, 0.5392156862745098)"></circle><circle r="5" cx="214.54" cy="656.39" fill="rgba(255, 255, 255, 0.5392156862745098)"></circle><circle r="5" cx="404.66" cy="507.89" fill="rgba(255, 255, 255, 0.5392156862745098)"></circle><circle r="5" cx="561.11" cy="540.1" fill="rgba(255, 255, 255, 0.5392156862745098)"></circle><circle r="5" cx="708.11" cy="513.01" fill="rgba(255, 255, 255, 0.5392156862745098)"></circle><circle r="5" cx="811.39" cy="378.17" fill="rgba(255, 255, 255, 0.5392156862745098)"></circle><circle r="5" cx="798.75" cy="541.85" fill="rgba(255, 255, 255, 0.5392156862745098)"></circle><circle r="5" cx="822.58" cy="646.22" fill="rgba(255, 255, 255, 0.5392156862745098)"></circle><circle r="5" cx="986.42" cy="350.85" fill="rgba(255, 255, 255, 0.5392156862745098)"></circle><circle r="5" cx="994.12" cy="551.52" fill="rgba(255, 255, 255, 0.5392156862745098)"></circle><circle r="5" cx="946.58" cy="704.88" fill="rgba(255, 255, 255, 0.5392156862745098)"></circle><circle r="5" cx="1136.14" cy="227.92" fill="rgba(255, 255, 255, 0.5392156862745098)"></circle><circle r="5" cx="1276.24" cy="80.41" fill="rgba(255, 255, 255, 0.5392156862745098)"></circle><circle r="5" cx="1242.59" cy="193.9" fill="rgba(255, 255, 255, 0.5392156862745098)"></circle><circle r="5" cx="1254.5" cy="367.03" fill="rgba(255, 255, 255, 0.5392156862745098)"></circle><circle r="5" cx="1267.81" cy="495.72" fill="rgba(255, 255, 255, 0.5392156862745098)"></circle><circle r="5" cx="1298.32" cy="665.17" fill="rgba(255, 255, 255, 0.5392156862745098)"></circle><circle r="5" cx="1447.01" cy="-65.49" fill="rgba(255, 255, 255, 0.5392156862745098)"></circle><circle r="5" cx="1429.21" cy="105.1" fill="rgba(255, 255, 255, 0.5392156862745098)"></circle><circle r="5" cx="1441.4" cy="251.86" fill="rgba(255, 255, 255, 0.5392156862745098)"></circle><circle r="5" cx="1462.19" cy="386.05" fill="rgba(255, 255, 255, 0.5392156862745098)"></circle><circle r="5" cx="1405.89" cy="495.43" fill="rgba(255, 255, 255, 0.5392156862745098)"></circle><circle r="5" cx="1414.32" cy="692.35" fill="rgba(255, 255, 255, 0.5392156862745098)"></circle><circle r="5" cx="1556.6" cy="100.76" fill="rgba(255, 255, 255, 0.5392156862745098)"></circle><circle r="5" cx="1543.9" cy="406.78" fill="rgba(255, 255, 255, 0.5392156862745098)"></circle><circle r="5" cx="1549.19" cy="521.57" fill="rgba(255, 255, 255, 0.5392156862745098)"></circle><circle r="5" cx="1569.72" cy="677.25" fill="rgba(255, 255, 255, 0.5392156862745098)"></circle></g><defs><mask id="SvgjsMask1006"><rect width="1440" height="560" fill="#ffffff"></rect></mask><radialGradient id="SvgjsRadialGradient1007"><stop stop-color="#ffffff" offset="0.1"></stop><stop stop-color="rgba(255, 255, 255, 0.0784313725490196)" offset="0.2"></stop><stop stop-color="rgba(255, 255, 255, 0)" offset="1"></stop></radialGradient></defs></svg>