<svg xmlns="http://www.w3.org/2000/svg" version="1.1" xmlns:xlink="http://www.w3.org/1999/xlink" xmlns:svgjs="http://svgjs.dev/svgjs" width="1440" height="560" preserveAspectRatio="none" viewBox="0 0 1440 560"><g mask="url(&quot;#SvgjsMask1022&quot;)" fill="none"><rect width="1440" height="560" x="0" y="0" fill="rgba(13, 13, 13, 1)"></rect><path d="M-77.21 538.15L-77.21 538.15" stroke="rgba(255, 255, 255, 0.0784313725490196)" stroke-width="1.5"></path><path d="M-77.21 538.15L-110.94 678.76" stroke="rgba(255, 255, 255, 0.0784313725490196)" stroke-width="1.5"></path><path d="M-77.21 538.15L88.54 640.81" stroke="rgba(255, 255, 255, 0.0784313725490196)" stroke-width="1.5"></path><path d="M-77.21 538.15L44.76 357.43" stroke="rgba(255, 255, 255, 0.0784313725490196)" stroke-width="1.5"></path><path d="M-77.21 538.15L257.23 510.42" stroke="rgba(255, 255, 255, 0.0784313725490196)" stroke-width="1.5"></path><path d="M-110.94 678.76L-110.94 678.76" stroke="rgba(255, 255, 255, 0.0784313725490196)" stroke-width="1.5"></path><path d="M-110.94 678.76L88.54 640.81" stroke="rgba(255, 255, 255, 0.0784313725490196)" stroke-width="1.5"></path><path d="M-110.94 678.76L223.05 708.3" stroke="rgba(255, 255, 255, 0.0784313725490196)" stroke-width="1.5"></path><path d="M-110.94 678.76L44.76 357.43" stroke="rgba(255, 255, 255, 0.0784313725490196)" stroke-width="1.5"></path><path d="M44.76 357.43L44.76 357.43" stroke="rgba(255, 255, 255, 0.0784313725490196)" stroke-width="1.5"></path><path d="M44.76 357.43L219.76 355.52" stroke="rgba(255, 255, 255, 0.0784313725490196)" stroke-width="1.5"></path><path d="M44.76 357.43L257.23 510.42" stroke="rgba(255, 255, 255, 0.0784313725490196)" stroke-width="1.5"></path><path d="M88.54 640.81L88.54 640.81" stroke="rgba(255, 255, 255, 0.0784313725490196)" stroke-width="1.5"></path><path d="M88.54 640.81L223.05 708.3" stroke="rgba(255, 255, 255, 0.0784313725490196)" stroke-width="1.5"></path><path d="M88.54 640.81L257.23 510.42" stroke="rgba(255, 255, 255, 0.0784313725490196)" stroke-width="1.5"></path><path d="M88.54 640.81L44.76 357.43" stroke="rgba(255, 255, 255, 0.0784313725490196)" stroke-width="1.5"></path><path d="M88.54 640.81L389.38 648.14" stroke="rgba(255, 255, 255, 0.0784313725490196)" stroke-width="1.5"></path><path d="M219.76 355.52L219.76 355.52" stroke="rgba(255, 255, 255, 0.0784313725490196)" stroke-width="1.5"></path><path d="M219.76 355.52L257.23 510.42" stroke="rgba(255, 255, 255, 0.0784313725490196)" stroke-width="1.5"></path><path d="M257.23 510.42L257.23 510.42" stroke="rgba(255, 255, 255, 0.0784313725490196)" stroke-width="1.5"></path><path d="M257.23 510.42L387.33 506.16" stroke="rgba(255, 255, 255, 0.0784313725490196)" stroke-width="1.5"></path><path d="M257.23 510.42L389.38 648.14" stroke="rgba(255, 255, 255, 0.0784313725490196)" stroke-width="1.5"></path><path d="M223.05 708.3L223.05 708.3" stroke="rgba(255, 255, 255, 0.0784313725490196)" stroke-width="1.5"></path><path d="M223.05 708.3L389.38 648.14" stroke="rgba(255, 255, 255, 0.0784313725490196)" stroke-width="1.5"></path><path d="M223.05 708.3L257.23 510.42" stroke="rgba(255, 255, 255, 0.0784313725490196)" stroke-width="1.5"></path><path d="M223.05 708.3L387.33 506.16" stroke="rgba(255, 255, 255, 0.0784313725490196)" stroke-width="1.5"></path><path d="M397.41 355.12L397.41 355.12" stroke="rgba(255, 255, 255, 0.0784313725490196)" stroke-width="1.5"></path><path d="M397.41 355.12L387.33 506.16" stroke="rgba(255, 255, 255, 0.0784313725490196)" stroke-width="1.5"></path><path d="M397.41 355.12L219.76 355.52" stroke="rgba(255, 255, 255, 0.0784313725490196)" stroke-width="1.5"></path><path d="M397.41 355.12L540.13 501.66" stroke="rgba(255, 255, 255, 0.0784313725490196)" stroke-width="1.5"></path><path d="M387.33 506.16L387.33 506.16" stroke="rgba(255, 255, 255, 0.0784313725490196)" stroke-width="1.5"></path><path d="M387.33 506.16L389.38 648.14" stroke="rgba(255, 255, 255, 0.0784313725490196)" stroke-width="1.5"></path><path d="M387.33 506.16L540.13 501.66" stroke="rgba(255, 255, 255, 0.0784313725490196)" stroke-width="1.5"></path><path d="M387.33 506.16L219.76 355.52" stroke="rgba(255, 255, 255, 0.0784313725490196)" stroke-width="1.5"></path><path d="M387.33 506.16L535.24 691.61" stroke="rgba(255, 255, 255, 0.0784313725490196)" stroke-width="1.5"></path><path d="M389.38 648.14L389.38 648.14" stroke="rgba(255, 255, 255, 0.0784313725490196)" stroke-width="1.5"></path><path d="M389.38 648.14L535.24 691.61" stroke="rgba(255, 255, 255, 0.0784313725490196)" stroke-width="1.5"></path><path d="M540.13 501.66L540.13 501.66" stroke="rgba(255, 255, 255, 0.0784313725490196)" stroke-width="1.5"></path><path d="M540.13 501.66L672.1 488.14" stroke="rgba(255, 255, 255, 0.0784313725490196)" stroke-width="1.5"></path><path d="M540.13 501.66L652.23 357.57" stroke="rgba(255, 255, 255, 0.0784313725490196)" stroke-width="1.5"></path><path d="M540.13 501.66L535.24 691.61" stroke="rgba(255, 255, 255, 0.0784313725490196)" stroke-width="1.5"></path><path d="M535.24 691.61L535.24 691.61" stroke="rgba(255, 255, 255, 0.0784313725490196)" stroke-width="1.5"></path><path d="M535.24 691.61L703.55 668.95" stroke="rgba(255, 255, 255, 0.0784313725490196)" stroke-width="1.5"></path><path d="M652.23 357.57L652.23 357.57" stroke="rgba(255, 255, 255, 0.0784313725490196)" stroke-width="1.5"></path><path d="M652.23 357.57L672.1 488.14" stroke="rgba(255, 255, 255, 0.0784313725490196)" stroke-width="1.5"></path><path d="M652.23 357.57L805.63 375.88" stroke="rgba(255, 255, 255, 0.0784313725490196)" stroke-width="1.5"></path><path d="M652.23 357.57L853.94 244.17" stroke="rgba(255, 255, 255, 0.0784313725490196)" stroke-width="1.5"></path><path d="M672.1 488.14L672.1 488.14" stroke="rgba(255, 255, 255, 0.0784313725490196)" stroke-width="1.5"></path><path d="M672.1 488.14L803.35 545.51" stroke="rgba(255, 255, 255, 0.0784313725490196)" stroke-width="1.5"></path><path d="M703.55 668.95L703.55 668.95" stroke="rgba(255, 255, 255, 0.0784313725490196)" stroke-width="1.5"></path><path d="M703.55 668.95L799.79 687.85" stroke="rgba(255, 255, 255, 0.0784313725490196)" stroke-width="1.5"></path><path d="M703.55 668.95L803.35 545.51" stroke="rgba(255, 255, 255, 0.0784313725490196)" stroke-width="1.5"></path><path d="M703.55 668.95L672.1 488.14" stroke="rgba(255, 255, 255, 0.0784313725490196)" stroke-width="1.5"></path><path d="M703.55 668.95L540.13 501.66" stroke="rgba(255, 255, 255, 0.0784313725490196)" stroke-width="1.5"></path><path d="M703.55 668.95L947.05 561.27" stroke="rgba(255, 255, 255, 0.0784313725490196)" stroke-width="1.5"></path><path d="M861.58 84.61L861.58 84.61" stroke="rgba(255, 255, 255, 0.0784313725490196)" stroke-width="1.5"></path><path d="M861.58 84.61L973.67 67.61" stroke="rgba(255, 255, 255, 0.0784313725490196)" stroke-width="1.5"></path><path d="M861.58 84.61L853.94 244.17" stroke="rgba(255, 255, 255, 0.0784313725490196)" stroke-width="1.5"></path><path d="M853.94 244.17L853.94 244.17" stroke="rgba(255, 255, 255, 0.0784313725490196)" stroke-width="1.5"></path><path d="M853.94 244.17L988.21 214.97" stroke="rgba(255, 255, 255, 0.0784313725490196)" stroke-width="1.5"></path><path d="M853.94 244.17L805.63 375.88" stroke="rgba(255, 255, 255, 0.0784313725490196)" stroke-width="1.5"></path><path d="M853.94 244.17L970.18 355.14" stroke="rgba(255, 255, 255, 0.0784313725490196)" stroke-width="1.5"></path><path d="M805.63 375.88L805.63 375.88" stroke="rgba(255, 255, 255, 0.0784313725490196)" stroke-width="1.5"></path><path d="M803.35 545.51L803.35 545.51" stroke="rgba(255, 255, 255, 0.0784313725490196)" stroke-width="1.5"></path><path d="M803.35 545.51L799.79 687.85" stroke="rgba(255, 255, 255, 0.0784313725490196)" stroke-width="1.5"></path><path d="M799.79 687.85L799.79 687.85" stroke="rgba(255, 255, 255, 0.0784313725490196)" stroke-width="1.5"></path><path d="M952.04 -64.7L952.04 -64.7" stroke="rgba(255, 255, 255, 0.0784313725490196)" stroke-width="1.5"></path><path d="M952.04 -64.7L973.67 67.61" stroke="rgba(255, 255, 255, 0.0784313725490196)" stroke-width="1.5"></path><path d="M952.04 -64.7L861.58 84.61" stroke="rgba(255, 255, 255, 0.0784313725490196)" stroke-width="1.5"></path><path d="M952.04 -64.7L1121.7 -111.21" stroke="rgba(255, 255, 255, 0.0784313725490196)" stroke-width="1.5"></path><path d="M952.04 -64.7L1090.44 74.98" stroke="rgba(255, 255, 255, 0.0784313725490196)" stroke-width="1.5"></path><path d="M952.04 -64.7L988.21 214.97" stroke="rgba(255, 255, 255, 0.0784313725490196)" stroke-width="1.5"></path><path d="M952.04 -64.7L853.94 244.17" stroke="rgba(255, 255, 255, 0.0784313725490196)" stroke-width="1.5"></path><path d="M973.67 67.61L973.67 67.61" stroke="rgba(255, 255, 255, 0.0784313725490196)" stroke-width="1.5"></path><path d="M973.67 67.61L1090.44 74.98" stroke="rgba(255, 255, 255, 0.0784313725490196)" stroke-width="1.5"></path><path d="M988.21 214.97L988.21 214.97" stroke="rgba(255, 255, 255, 0.0784313725490196)" stroke-width="1.5"></path><path d="M988.21 214.97L1103.25 262" stroke="rgba(255, 255, 255, 0.0784313725490196)" stroke-width="1.5"></path><path d="M970.18 355.14L970.18 355.14" stroke="rgba(255, 255, 255, 0.0784313725490196)" stroke-width="1.5"></path><path d="M970.18 355.14L988.21 214.97" stroke="rgba(255, 255, 255, 0.0784313725490196)" stroke-width="1.5"></path><path d="M947.05 561.27L947.05 561.27" stroke="rgba(255, 255, 255, 0.0784313725490196)" stroke-width="1.5"></path><path d="M947.05 561.27L803.35 545.51" stroke="rgba(255, 255, 255, 0.0784313725490196)" stroke-width="1.5"></path><path d="M947.05 561.27L1005.04 699.32" stroke="rgba(255, 255, 255, 0.0784313725490196)" stroke-width="1.5"></path><path d="M947.05 561.27L1107.95 561.94" stroke="rgba(255, 255, 255, 0.0784313725490196)" stroke-width="1.5"></path><path d="M947.05 561.27L1108.05 655.74" stroke="rgba(255, 255, 255, 0.0784313725490196)" stroke-width="1.5"></path><path d="M947.05 561.27L799.79 687.85" stroke="rgba(255, 255, 255, 0.0784313725490196)" stroke-width="1.5"></path><path d="M947.05 561.27L970.18 355.14" stroke="rgba(255, 255, 255, 0.0784313725490196)" stroke-width="1.5"></path><path d="M1005.04 699.32L1005.04 699.32" stroke="rgba(255, 255, 255, 0.0784313725490196)" stroke-width="1.5"></path><path d="M1005.04 699.32L1108.05 655.74" stroke="rgba(255, 255, 255, 0.0784313725490196)" stroke-width="1.5"></path><path d="M1005.04 699.32L1107.95 561.94" stroke="rgba(255, 255, 255, 0.0784313725490196)" stroke-width="1.5"></path><path d="M1005.04 699.32L799.79 687.85" stroke="rgba(255, 255, 255, 0.0784313725490196)" stroke-width="1.5"></path><path d="M1005.04 699.32L803.35 545.51" stroke="rgba(255, 255, 255, 0.0784313725490196)" stroke-width="1.5"></path><path d="M1005.04 699.32L703.55 668.95" stroke="rgba(255, 255, 255, 0.0784313725490196)" stroke-width="1.5"></path><path d="M1121.7 -111.21L1121.7 -111.21" stroke="rgba(255, 255, 255, 0.0784313725490196)" stroke-width="1.5"></path><path d="M1121.7 -111.21L1285.98 -53.65" stroke="rgba(255, 255, 255, 0.0784313725490196)" stroke-width="1.5"></path><path d="M1090.44 74.98L1090.44 74.98" stroke="rgba(255, 255, 255, 0.0784313725490196)" stroke-width="1.5"></path><path d="M1090.44 74.98L988.21 214.97" stroke="rgba(255, 255, 255, 0.0784313725490196)" stroke-width="1.5"></path><path d="M1090.44 74.98L1103.25 262" stroke="rgba(255, 255, 255, 0.0784313725490196)" stroke-width="1.5"></path><path d="M1090.44 74.98L1121.7 -111.21" stroke="rgba(255, 255, 255, 0.0784313725490196)" stroke-width="1.5"></path><path d="M1090.44 74.98L1286.18 90.3" stroke="rgba(255, 255, 255, 0.0784313725490196)" stroke-width="1.5"></path><path d="M1103.25 262L1103.25 262" stroke="rgba(255, 255, 255, 0.0784313725490196)" stroke-width="1.5"></path><path d="M1103.25 262L1112.37 355.89" stroke="rgba(255, 255, 255, 0.0784313725490196)" stroke-width="1.5"></path><path d="M1112.37 355.89L1112.37 355.89" stroke="rgba(255, 255, 255, 0.0784313725490196)" stroke-width="1.5"></path><path d="M1112.37 355.89L970.18 355.14" stroke="rgba(255, 255, 255, 0.0784313725490196)" stroke-width="1.5"></path><path d="M1112.37 355.89L1292.05 344.23" stroke="rgba(255, 255, 255, 0.0784313725490196)" stroke-width="1.5"></path><path d="M1112.37 355.89L988.21 214.97" stroke="rgba(255, 255, 255, 0.0784313725490196)" stroke-width="1.5"></path><path d="M1112.37 355.89L1107.95 561.94" stroke="rgba(255, 255, 255, 0.0784313725490196)" stroke-width="1.5"></path><path d="M1112.37 355.89L1264.59 203.9" stroke="rgba(255, 255, 255, 0.0784313725490196)" stroke-width="1.5"></path><path d="M1107.95 561.94L1107.95 561.94" stroke="rgba(255, 255, 255, 0.0784313725490196)" stroke-width="1.5"></path><path d="M1107.95 561.94L1108.05 655.74" stroke="rgba(255, 255, 255, 0.0784313725490196)" stroke-width="1.5"></path><path d="M1107.95 561.94L1271.55 510.48" stroke="rgba(255, 255, 255, 0.0784313725490196)" stroke-width="1.5"></path><path d="M1108.05 655.74L1108.05 655.74" stroke="rgba(255, 255, 255, 0.0784313725490196)" stroke-width="1.5"></path><path d="M1108.05 655.74L1309.17 710.48" stroke="rgba(255, 255, 255, 0.0784313725490196)" stroke-width="1.5"></path><path d="M1108.05 655.74L1271.55 510.48" stroke="rgba(255, 255, 255, 0.0784313725490196)" stroke-width="1.5"></path><path d="M1285.98 -53.65L1285.98 -53.65" stroke="rgba(255, 255, 255, 0.0784313725490196)" stroke-width="1.5"></path><path d="M1285.98 -53.65L1286.18 90.3" stroke="rgba(255, 255, 255, 0.0784313725490196)" stroke-width="1.5"></path><path d="M1285.98 -53.65L1452.32 -92.33" stroke="rgba(255, 255, 255, 0.0784313725490196)" stroke-width="1.5"></path><path d="M1286.18 90.3L1286.18 90.3" stroke="rgba(255, 255, 255, 0.0784313725490196)" stroke-width="1.5"></path><path d="M1286.18 90.3L1264.59 203.9" stroke="rgba(255, 255, 255, 0.0784313725490196)" stroke-width="1.5"></path><path d="M1286.18 90.3L1427.27 95.98" stroke="rgba(255, 255, 255, 0.0784313725490196)" stroke-width="1.5"></path><path d="M1286.18 90.3L1417.07 223.64" stroke="rgba(255, 255, 255, 0.0784313725490196)" stroke-width="1.5"></path><path d="M1264.59 203.9L1264.59 203.9" stroke="rgba(255, 255, 255, 0.0784313725490196)" stroke-width="1.5"></path><path d="M1264.59 203.9L1292.05 344.23" stroke="rgba(255, 255, 255, 0.0784313725490196)" stroke-width="1.5"></path><path d="M1264.59 203.9L1417.07 223.64" stroke="rgba(255, 255, 255, 0.0784313725490196)" stroke-width="1.5"></path><path d="M1264.59 203.9L1103.25 262" stroke="rgba(255, 255, 255, 0.0784313725490196)" stroke-width="1.5"></path><path d="M1264.59 203.9L1427.27 95.98" stroke="rgba(255, 255, 255, 0.0784313725490196)" stroke-width="1.5"></path><path d="M1292.05 344.23L1292.05 344.23" stroke="rgba(255, 255, 255, 0.0784313725490196)" stroke-width="1.5"></path><path d="M1292.05 344.23L1426.6 367.83" stroke="rgba(255, 255, 255, 0.0784313725490196)" stroke-width="1.5"></path><path d="M1292.05 344.23L1271.55 510.48" stroke="rgba(255, 255, 255, 0.0784313725490196)" stroke-width="1.5"></path><path d="M1292.05 344.23L1417.07 223.64" stroke="rgba(255, 255, 255, 0.0784313725490196)" stroke-width="1.5"></path><path d="M1271.55 510.48L1271.55 510.48" stroke="rgba(255, 255, 255, 0.0784313725490196)" stroke-width="1.5"></path><path d="M1271.55 510.48L1440.5 553.42" stroke="rgba(255, 255, 255, 0.0784313725490196)" stroke-width="1.5"></path><path d="M1309.17 710.48L1309.17 710.48" stroke="rgba(255, 255, 255, 0.0784313725490196)" stroke-width="1.5"></path><path d="M1309.17 710.48L1396.85 640.59" stroke="rgba(255, 255, 255, 0.0784313725490196)" stroke-width="1.5"></path><path d="M1309.17 710.48L1271.55 510.48" stroke="rgba(255, 255, 255, 0.0784313725490196)" stroke-width="1.5"></path><path d="M1309.17 710.48L1440.5 553.42" stroke="rgba(255, 255, 255, 0.0784313725490196)" stroke-width="1.5"></path><path d="M1309.17 710.48L1107.95 561.94" stroke="rgba(255, 255, 255, 0.0784313725490196)" stroke-width="1.5"></path><path d="M1309.17 710.48L1591.7 674.01" stroke="rgba(255, 255, 255, 0.0784313725490196)" stroke-width="1.5"></path><path d="M1452.32 -92.33L1452.32 -92.33" stroke="rgba(255, 255, 255, 0.0784313725490196)" stroke-width="1.5"></path><path d="M1452.32 -92.33L1584.84 -46.34" stroke="rgba(255, 255, 255, 0.0784313725490196)" stroke-width="1.5"></path><path d="M1427.27 95.98L1427.27 95.98" stroke="rgba(255, 255, 255, 0.0784313725490196)" stroke-width="1.5"></path><path d="M1427.27 95.98L1417.07 223.64" stroke="rgba(255, 255, 255, 0.0784313725490196)" stroke-width="1.5"></path><path d="M1427.27 95.98L1603.41 86.39" stroke="rgba(255, 255, 255, 0.0784313725490196)" stroke-width="1.5"></path><path d="M1427.27 95.98L1452.32 -92.33" stroke="rgba(255, 255, 255, 0.0784313725490196)" stroke-width="1.5"></path><path d="M1417.07 223.64L1417.07 223.64" stroke="rgba(255, 255, 255, 0.0784313725490196)" stroke-width="1.5"></path><path d="M1417.07 223.64L1426.6 367.83" stroke="rgba(255, 255, 255, 0.0784313725490196)" stroke-width="1.5"></path><path d="M1426.6 367.83L1426.6 367.83" stroke="rgba(255, 255, 255, 0.0784313725490196)" stroke-width="1.5"></path><path d="M1426.6 367.83L1440.5 553.42" stroke="rgba(255, 255, 255, 0.0784313725490196)" stroke-width="1.5"></path><path d="M1426.6 367.83L1271.55 510.48" stroke="rgba(255, 255, 255, 0.0784313725490196)" stroke-width="1.5"></path><path d="M1426.6 367.83L1264.59 203.9" stroke="rgba(255, 255, 255, 0.0784313725490196)" stroke-width="1.5"></path><path d="M1440.5 553.42L1440.5 553.42" stroke="rgba(255, 255, 255, 0.0784313725490196)" stroke-width="1.5"></path><path d="M1440.5 553.42L1396.85 640.59" stroke="rgba(255, 255, 255, 0.0784313725490196)" stroke-width="1.5"></path><path d="M1440.5 553.42L1575.25 552.4" stroke="rgba(255, 255, 255, 0.0784313725490196)" stroke-width="1.5"></path><path d="M1440.5 553.42L1591.7 674.01" stroke="rgba(255, 255, 255, 0.0784313725490196)" stroke-width="1.5"></path><path d="M1396.85 640.59L1396.85 640.59" stroke="rgba(255, 255, 255, 0.0784313725490196)" stroke-width="1.5"></path><path d="M1584.84 -46.34L1584.84 -46.34" stroke="rgba(255, 255, 255, 0.0784313725490196)" stroke-width="1.5"></path><path d="M1584.84 -46.34L1603.41 86.39" stroke="rgba(255, 255, 255, 0.0784313725490196)" stroke-width="1.5"></path><path d="M1584.84 -46.34L1427.27 95.98" stroke="rgba(255, 255, 255, 0.0784313725490196)" stroke-width="1.5"></path><path d="M1584.84 -46.34L1608.57 202.88" stroke="rgba(255, 255, 255, 0.0784313725490196)" stroke-width="1.5"></path><path d="M1584.84 -46.34L1285.98 -53.65" stroke="rgba(255, 255, 255, 0.0784313725490196)" stroke-width="1.5"></path><path d="M1584.84 -46.34L1417.07 223.64" stroke="rgba(255, 255, 255, 0.0784313725490196)" stroke-width="1.5"></path><path d="M1603.41 86.39L1603.41 86.39" stroke="rgba(255, 255, 255, 0.0784313725490196)" stroke-width="1.5"></path><path d="M1603.41 86.39L1608.57 202.88" stroke="rgba(255, 255, 255, 0.0784313725490196)" stroke-width="1.5"></path><path d="M1603.41 86.39L1417.07 223.64" stroke="rgba(255, 255, 255, 0.0784313725490196)" stroke-width="1.5"></path><path d="M1608.57 202.88L1608.57 202.88" stroke="rgba(255, 255, 255, 0.0784313725490196)" stroke-width="1.5"></path><path d="M1608.57 202.88L1417.07 223.64" stroke="rgba(255, 255, 255, 0.0784313725490196)" stroke-width="1.5"></path><path d="M1575.25 552.4L1575.25 552.4" stroke="rgba(255, 255, 255, 0.0784313725490196)" stroke-width="1.5"></path><path d="M1575.25 552.4L1591.7 674.01" stroke="rgba(255, 255, 255, 0.0784313725490196)" stroke-width="1.5"></path><path d="M1591.7 674.01L1591.7 674.01" stroke="rgba(255, 255, 255, 0.0784313725490196)" stroke-width="1.5"></path><circle r="5" cx="-77.21" cy="538.15" fill="rgba(255, 255, 255, 0.0784313725490196)"></circle><circle r="5" cx="-110.94" cy="678.76" fill="rgba(255, 255, 255, 0.0784313725490196)"></circle><circle r="5" cx="44.76" cy="357.43" fill="rgba(255, 255, 255, 0.0784313725490196)"></circle><circle r="5" cx="88.54" cy="640.81" fill="rgba(255, 255, 255, 0.0784313725490196)"></circle><circle r="5" cx="219.76" cy="355.52" fill="rgba(255, 255, 255, 0.0784313725490196)"></circle><circle r="5" cx="257.23" cy="510.42" fill="rgba(255, 255, 255, 0.0784313725490196)"></circle><circle r="5" cx="223.05" cy="708.3" fill="rgba(255, 255, 255, 0.0784313725490196)"></circle><circle r="5" cx="397.41" cy="355.12" fill="rgba(255, 255, 255, 0.0784313725490196)"></circle><circle r="5" cx="387.33" cy="506.16" fill="rgba(255, 255, 255, 0.0784313725490196)"></circle><circle r="5" cx="389.38" cy="648.14" fill="rgba(255, 255, 255, 0.0784313725490196)"></circle><circle r="5" cx="540.13" cy="501.66" fill="rgba(255, 255, 255, 0.0784313725490196)"></circle><circle r="5" cx="535.24" cy="691.61" fill="rgba(255, 255, 255, 0.0784313725490196)"></circle><circle r="5" cx="652.23" cy="357.57" fill="rgba(255, 255, 255, 0.0784313725490196)"></circle><circle r="5" cx="672.1" cy="488.14" fill="rgba(255, 255, 255, 0.0784313725490196)"></circle><circle r="5" cx="703.55" cy="668.95" fill="rgba(255, 255, 255, 0.0784313725490196)"></circle><circle r="5" cx="861.58" cy="84.61" fill="rgba(255, 255, 255, 0.0784313725490196)"></circle><circle r="5" cx="853.94" cy="244.17" fill="rgba(255, 255, 255, 0.0784313725490196)"></circle><circle r="5" cx="805.63" cy="375.88" fill="rgba(255, 255, 255, 0.0784313725490196)"></circle><circle r="5" cx="803.35" cy="545.51" fill="rgba(255, 255, 255, 0.0784313725490196)"></circle><circle r="5" cx="799.79" cy="687.85" fill="rgba(255, 255, 255, 0.0784313725490196)"></circle><circle r="5" cx="952.04" cy="-64.7" fill="rgba(255, 255, 255, 0.0784313725490196)"></circle><circle r="5" cx="973.67" cy="67.61" fill="rgba(255, 255, 255, 0.0784313725490196)"></circle><circle r="5" cx="988.21" cy="214.97" fill="rgba(255, 255, 255, 0.0784313725490196)"></circle><circle r="5" cx="970.18" cy="355.14" fill="rgba(255, 255, 255, 0.0784313725490196)"></circle><circle r="5" cx="947.05" cy="561.27" fill="rgba(255, 255, 255, 0.0784313725490196)"></circle><circle r="5" cx="1005.04" cy="699.32" fill="rgba(255, 255, 255, 0.0784313725490196)"></circle><circle r="5" cx="1121.7" cy="-111.21" fill="rgba(255, 255, 255, 0.0784313725490196)"></circle><circle r="5" cx="1090.44" cy="74.98" fill="rgba(255, 255, 255, 0.0784313725490196)"></circle><circle r="5" cx="1103.25" cy="262" fill="rgba(255, 255, 255, 0.0784313725490196)"></circle><circle r="5" cx="1112.37" cy="355.89" fill="rgba(255, 255, 255, 0.0784313725490196)"></circle><circle r="5" cx="1107.95" cy="561.94" fill="rgba(255, 255, 255, 0.0784313725490196)"></circle><circle r="5" cx="1108.05" cy="655.74" fill="rgba(255, 255, 255, 0.0784313725490196)"></circle><circle r="5" cx="1285.98" cy="-53.65" fill="rgba(255, 255, 255, 0.0784313725490196)"></circle><circle r="5" cx="1286.18" cy="90.3" fill="rgba(255, 255, 255, 0.0784313725490196)"></circle><circle r="5" cx="1264.59" cy="203.9" fill="rgba(255, 255, 255, 0.0784313725490196)"></circle><circle r="5" cx="1292.05" cy="344.23" fill="rgba(255, 255, 255, 0.0784313725490196)"></circle><circle r="5" cx="1271.55" cy="510.48" fill="rgba(255, 255, 255, 0.0784313725490196)"></circle><circle r="5" cx="1309.17" cy="710.48" fill="rgba(255, 255, 255, 0.0784313725490196)"></circle><circle r="5" cx="1452.32" cy="-92.33" fill="rgba(255, 255, 255, 0.0784313725490196)"></circle><circle r="5" cx="1427.27" cy="95.98" fill="rgba(255, 255, 255, 0.0784313725490196)"></circle><circle r="5" cx="1417.07" cy="223.64" fill="rgba(255, 255, 255, 0.0784313725490196)"></circle><circle r="5" cx="1426.6" cy="367.83" fill="rgba(255, 255, 255, 0.0784313725490196)"></circle><circle r="5" cx="1440.5" cy="553.42" fill="rgba(255, 255, 255, 0.0784313725490196)"></circle><circle r="5" cx="1396.85" cy="640.59" fill="rgba(255, 255, 255, 0.0784313725490196)"></circle><circle r="5" cx="1584.84" cy="-46.34" fill="rgba(255, 255, 255, 0.0784313725490196)"></circle><circle r="5" cx="1603.41" cy="86.39" fill="rgba(255, 255, 255, 0.0784313725490196)"></circle><circle r="5" cx="1608.57" cy="202.88" fill="rgba(255, 255, 255, 0.0784313725490196)"></circle><circle r="5" cx="1575.25" cy="552.4" fill="rgba(255, 255, 255, 0.0784313725490196)"></circle><circle r="5" cx="1591.7" cy="674.01" fill="rgba(255, 255, 255, 0.0784313725490196)"></circle><path d="M-97.07 488.61L-97.07 488.61" stroke="hsla(0, 0%, 100%, 0.0784313725490196)" stroke-width="1.5"></path><path d="M-97.07 488.61L47.47 538.47" stroke="hsla(0, 0%, 100%, 0.0784313725490196)" stroke-width="1.5"></path><path d="M-97.07 488.61L-91.99 697.18" stroke="hsla(0, 0%, 100%, 0.0784313725490196)" stroke-width="1.5"></path><path d="M-97.07 488.61L215.41 520.74" stroke="hsla(0, 0%, 100%, 0.0784313725490196)" stroke-width="1.5"></path><path d="M-97.07 488.61L194.05 656.96" stroke="hsla(0, 0%, 100%, 0.0784313725490196)" stroke-width="1.5"></path><path d="M-97.07 488.61L345.23 549.72" stroke="hsla(0, 0%, 100%, 0.0784313725490196)" stroke-width="1.5"></path><path d="M-97.07 488.61L364.08 698.25" stroke="hsla(0, 0%, 100%, 0.0784313725490196)" stroke-width="1.5"></path><path d="M47.47 538.47L47.47 538.47" stroke="hsla(0, 0%, 100%, 0.0784313725490196)" stroke-width="1.5"></path><path d="M47.47 538.47L215.41 520.74" stroke="hsla(0, 0%, 100%, 0.0784313725490196)" stroke-width="1.5"></path><path d="M47.47 538.47L194.05 656.96" stroke="hsla(0, 0%, 100%, 0.0784313725490196)" stroke-width="1.5"></path><path d="M215.41 520.74L215.41 520.74" stroke="hsla(0, 0%, 100%, 0.0784313725490196)" stroke-width="1.5"></path><path d="M215.41 520.74L345.23 549.72" stroke="hsla(0, 0%, 100%, 0.0784313725490196)" stroke-width="1.5"></path><path d="M215.41 520.74L194.05 656.96" stroke="hsla(0, 0%, 100%, 0.0784313725490196)" stroke-width="1.5"></path><path d="M215.41 520.74L364.08 698.25" stroke="hsla(0, 0%, 100%, 0.0784313725490196)" stroke-width="1.5"></path><path d="M215.41 520.74L494.07 505.19" stroke="hsla(0, 0%, 100%, 0.0784313725490196)" stroke-width="1.5"></path><path d="M494.07 505.19L494.07 505.19" stroke="hsla(0, 0%, 100%, 0.0784313725490196)" stroke-width="1.5"></path><path d="M494.07 505.19L345.23 549.72" stroke="hsla(0, 0%, 100%, 0.0784313725490196)" stroke-width="1.5"></path><path d="M494.07 505.19L654.31 550.32" stroke="hsla(0, 0%, 100%, 0.0784313725490196)" stroke-width="1.5"></path><path d="M494.07 505.19L517.15 676.15" stroke="hsla(0, 0%, 100%, 0.0784313725490196)" stroke-width="1.5"></path><path d="M494.07 505.19L364.08 698.25" stroke="hsla(0, 0%, 100%, 0.0784313725490196)" stroke-width="1.5"></path><path d="M494.07 505.19L677.9 691.58" stroke="hsla(0, 0%, 100%, 0.0784313725490196)" stroke-width="1.5"></path><path d="M654.31 550.32L654.31 550.32" stroke="hsla(0, 0%, 100%, 0.0784313725490196)" stroke-width="1.5"></path><path d="M654.31 550.32L677.9 691.58" stroke="hsla(0, 0%, 100%, 0.0784313725490196)" stroke-width="1.5"></path><path d="M654.31 550.32L824.94 501.54" stroke="hsla(0, 0%, 100%, 0.0784313725490196)" stroke-width="1.5"></path><path d="M968.94 397.7L968.94 397.7" stroke="hsla(0, 0%, 100%, 0.0784313725490196)" stroke-width="1.5"></path><path d="M968.94 397.7L956.52 505.87" stroke="hsla(0, 0%, 100%, 0.0784313725490196)" stroke-width="1.5"></path><path d="M968.94 397.7L1090.03 400.81" stroke="hsla(0, 0%, 100%, 0.0784313725490196)" stroke-width="1.5"></path><path d="M968.94 397.7L848.49 369.83" stroke="hsla(0, 0%, 100%, 0.0784313725490196)" stroke-width="1.5"></path><path d="M968.94 397.7L824.94 501.54" stroke="hsla(0, 0%, 100%, 0.0784313725490196)" stroke-width="1.5"></path><path d="M968.94 397.7L1156.11 522.67" stroke="hsla(0, 0%, 100%, 0.0784313725490196)" stroke-width="1.5"></path><path d="M968.94 397.7L1012.4 669.56" stroke="hsla(0, 0%, 100%, 0.0784313725490196)" stroke-width="1.5"></path><path d="M1012.4 669.56L1012.4 669.56" stroke="hsla(0, 0%, 100%, 0.0784313725490196)" stroke-width="1.5"></path><path d="M1012.4 669.56L1152.43 670.56" stroke="hsla(0, 0%, 100%, 0.0784313725490196)" stroke-width="1.5"></path><path d="M1090.03 400.81L1090.03 400.81" stroke="hsla(0, 0%, 100%, 0.0784313725490196)" stroke-width="1.5"></path><path d="M1090.03 400.81L1156.11 522.67" stroke="hsla(0, 0%, 100%, 0.0784313725490196)" stroke-width="1.5"></path><path d="M1090.03 400.81L956.52 505.87" stroke="hsla(0, 0%, 100%, 0.0784313725490196)" stroke-width="1.5"></path><path d="M1090.03 400.81L1252.12 343.42" stroke="hsla(0, 0%, 100%, 0.0784313725490196)" stroke-width="1.5"></path><path d="M1090.03 400.81L1269.54 504.66" stroke="hsla(0, 0%, 100%, 0.0784313725490196)" stroke-width="1.5"></path><path d="M1600.5 -97.72L1600.5 -97.72" stroke="hsla(0, 0%, 100%, 0.0784313725490196)" stroke-width="1.5"></path><path d="M1600.5 -97.72L1539.1 42.73" stroke="hsla(0, 0%, 100%, 0.0784313725490196)" stroke-width="1.5"></path><path d="M1600.5 -97.72L1448.15 60.6" stroke="hsla(0, 0%, 100%, 0.0784313725490196)" stroke-width="1.5"></path><path d="M1600.5 -97.72L1300.2 -78.58" stroke="hsla(0, 0%, 100%, 0.0784313725490196)" stroke-width="1.5"></path><path d="M1600.5 -97.72L1585.73 211.29" stroke="hsla(0, 0%, 100%, 0.0784313725490196)" stroke-width="1.5"></path><path d="M1600.5 -97.72L1430.17 209.87" stroke="hsla(0, 0%, 100%, 0.0784313725490196)" stroke-width="1.5"></path><path d="M1600.5 -97.72L1283.94 102.02" stroke="hsla(0, 0%, 100%, 0.0784313725490196)" stroke-width="1.5"></path><path d="M1609.77 694.48L1609.77 694.48" stroke="hsla(0, 0%, 100%, 0.0784313725490196)" stroke-width="1.5"></path><path d="M1609.77 694.48L1433.39 680.05" stroke="hsla(0, 0%, 100%, 0.0784313725490196)" stroke-width="1.5"></path><path d="M1609.77 694.48L1400.32 541.41" stroke="hsla(0, 0%, 100%, 0.0784313725490196)" stroke-width="1.5"></path><path d="M1609.77 694.48L1286.51 659.58" stroke="hsla(0, 0%, 100%, 0.0784313725490196)" stroke-width="1.5"></path><path d="M1609.77 694.48L1542.71 368.09" stroke="hsla(0, 0%, 100%, 0.0784313725490196)" stroke-width="1.5"></path><path d="M-91.99 697.18L-91.99 697.18" stroke="hsla(0, 0%, 100%, 0.0784313725490196)" stroke-width="1.5"></path><path d="M194.05 656.96L194.05 656.96" stroke="hsla(0, 0%, 100%, 0.0784313725490196)" stroke-width="1.5"></path><path d="M194.05 656.96L364.08 698.25" stroke="hsla(0, 0%, 100%, 0.0784313725490196)" stroke-width="1.5"></path><path d="M194.05 656.96L345.23 549.72" stroke="hsla(0, 0%, 100%, 0.0784313725490196)" stroke-width="1.5"></path><path d="M345.23 549.72L345.23 549.72" stroke="hsla(0, 0%, 100%, 0.0784313725490196)" stroke-width="1.5"></path><path d="M345.23 549.72L364.08 698.25" stroke="hsla(0, 0%, 100%, 0.0784313725490196)" stroke-width="1.5"></path><path d="M345.23 549.72L517.15 676.15" stroke="hsla(0, 0%, 100%, 0.0784313725490196)" stroke-width="1.5"></path><path d="M345.23 549.72L47.47 538.47" stroke="hsla(0, 0%, 100%, 0.0784313725490196)" stroke-width="1.5"></path><path d="M364.08 698.25L364.08 698.25" stroke="hsla(0, 0%, 100%, 0.0784313725490196)" stroke-width="1.5"></path><path d="M364.08 698.25L517.15 676.15" stroke="hsla(0, 0%, 100%, 0.0784313725490196)" stroke-width="1.5"></path><path d="M517.15 676.15L517.15 676.15" stroke="hsla(0, 0%, 100%, 0.0784313725490196)" stroke-width="1.5"></path><path d="M517.15 676.15L677.9 691.58" stroke="hsla(0, 0%, 100%, 0.0784313725490196)" stroke-width="1.5"></path><path d="M677.9 691.58L677.9 691.58" stroke="hsla(0, 0%, 100%, 0.0784313725490196)" stroke-width="1.5"></path><path d="M677.9 691.58L824.94 501.54" stroke="hsla(0, 0%, 100%, 0.0784313725490196)" stroke-width="1.5"></path><path d="M677.9 691.58L364.08 698.25" stroke="hsla(0, 0%, 100%, 0.0784313725490196)" stroke-width="1.5"></path><path d="M848.49 369.83L848.49 369.83" stroke="hsla(0, 0%, 100%, 0.0784313725490196)" stroke-width="1.5"></path><path d="M848.49 369.83L824.94 501.54" stroke="hsla(0, 0%, 100%, 0.0784313725490196)" stroke-width="1.5"></path><path d="M824.94 501.54L824.94 501.54" stroke="hsla(0, 0%, 100%, 0.0784313725490196)" stroke-width="1.5"></path><path d="M824.94 501.54L956.52 505.87" stroke="hsla(0, 0%, 100%, 0.0784313725490196)" stroke-width="1.5"></path><path d="M956.52 505.87L956.52 505.87" stroke="hsla(0, 0%, 100%, 0.0784313725490196)" stroke-width="1.5"></path><path d="M956.52 505.87L1012.4 669.56" stroke="hsla(0, 0%, 100%, 0.0784313725490196)" stroke-width="1.5"></path><path d="M956.52 505.87L848.49 369.83" stroke="hsla(0, 0%, 100%, 0.0784313725490196)" stroke-width="1.5"></path><path d="M956.52 505.87L1156.11 522.67" stroke="hsla(0, 0%, 100%, 0.0784313725490196)" stroke-width="1.5"></path><path d="M1156.11 522.67L1156.11 522.67" stroke="hsla(0, 0%, 100%, 0.0784313725490196)" stroke-width="1.5"></path><path d="M1156.11 522.67L1269.54 504.66" stroke="hsla(0, 0%, 100%, 0.0784313725490196)" stroke-width="1.5"></path><path d="M1152.43 670.56L1152.43 670.56" stroke="hsla(0, 0%, 100%, 0.0784313725490196)" stroke-width="1.5"></path><path d="M1152.43 670.56L1286.51 659.58" stroke="hsla(0, 0%, 100%, 0.0784313725490196)" stroke-width="1.5"></path><path d="M1300.2 -78.58L1300.2 -78.58" stroke="hsla(0, 0%, 100%, 0.0784313725490196)" stroke-width="1.5"></path><path d="M1300.2 -78.58L1283.94 102.02" stroke="hsla(0, 0%, 100%, 0.0784313725490196)" stroke-width="1.5"></path><path d="M1300.2 -78.58L1448.15 60.6" stroke="hsla(0, 0%, 100%, 0.0784313725490196)" stroke-width="1.5"></path><path d="M1300.2 -78.58L1539.1 42.73" stroke="hsla(0, 0%, 100%, 0.0784313725490196)" stroke-width="1.5"></path><path d="M1283.94 102.02L1283.94 102.02" stroke="hsla(0, 0%, 100%, 0.0784313725490196)" stroke-width="1.5"></path><path d="M1283.94 102.02L1294.65 245.19" stroke="hsla(0, 0%, 100%, 0.0784313725490196)" stroke-width="1.5"></path><path d="M1283.94 102.02L1448.15 60.6" stroke="hsla(0, 0%, 100%, 0.0784313725490196)" stroke-width="1.5"></path><path d="M1283.94 102.02L1430.17 209.87" stroke="hsla(0, 0%, 100%, 0.0784313725490196)" stroke-width="1.5"></path><path d="M1283.94 102.02L1252.12 343.42" stroke="hsla(0, 0%, 100%, 0.0784313725490196)" stroke-width="1.5"></path><path d="M1294.65 245.19L1294.65 245.19" stroke="hsla(0, 0%, 100%, 0.0784313725490196)" stroke-width="1.5"></path><path d="M1294.65 245.19L1252.12 343.42" stroke="hsla(0, 0%, 100%, 0.0784313725490196)" stroke-width="1.5"></path><path d="M1294.65 245.19L1430.17 209.87" stroke="hsla(0, 0%, 100%, 0.0784313725490196)" stroke-width="1.5"></path><path d="M1294.65 245.19L1436.38 356.83" stroke="hsla(0, 0%, 100%, 0.0784313725490196)" stroke-width="1.5"></path><path d="M1252.12 343.42L1252.12 343.42" stroke="hsla(0, 0%, 100%, 0.0784313725490196)" stroke-width="1.5"></path><path d="M1252.12 343.42L1269.54 504.66" stroke="hsla(0, 0%, 100%, 0.0784313725490196)" stroke-width="1.5"></path><path d="M1269.54 504.66L1269.54 504.66" stroke="hsla(0, 0%, 100%, 0.0784313725490196)" stroke-width="1.5"></path><path d="M1269.54 504.66L1400.32 541.41" stroke="hsla(0, 0%, 100%, 0.0784313725490196)" stroke-width="1.5"></path><path d="M1269.54 504.66L1286.51 659.58" stroke="hsla(0, 0%, 100%, 0.0784313725490196)" stroke-width="1.5"></path><path d="M1269.54 504.66L1152.43 670.56" stroke="hsla(0, 0%, 100%, 0.0784313725490196)" stroke-width="1.5"></path><path d="M1286.51 659.58L1286.51 659.58" stroke="hsla(0, 0%, 100%, 0.0784313725490196)" stroke-width="1.5"></path><path d="M1286.51 659.58L1433.39 680.05" stroke="hsla(0, 0%, 100%, 0.0784313725490196)" stroke-width="1.5"></path><path d="M1448.15 60.6L1448.15 60.6" stroke="hsla(0, 0%, 100%, 0.0784313725490196)" stroke-width="1.5"></path><path d="M1448.15 60.6L1539.1 42.73" stroke="hsla(0, 0%, 100%, 0.0784313725490196)" stroke-width="1.5"></path><path d="M1448.15 60.6L1430.17 209.87" stroke="hsla(0, 0%, 100%, 0.0784313725490196)" stroke-width="1.5"></path><path d="M1430.17 209.87L1430.17 209.87" stroke="hsla(0, 0%, 100%, 0.0784313725490196)" stroke-width="1.5"></path><path d="M1430.17 209.87L1436.38 356.83" stroke="hsla(0, 0%, 100%, 0.0784313725490196)" stroke-width="1.5"></path><path d="M1430.17 209.87L1585.73 211.29" stroke="hsla(0, 0%, 100%, 0.0784313725490196)" stroke-width="1.5"></path><path d="M1436.38 356.83L1436.38 356.83" stroke="hsla(0, 0%, 100%, 0.0784313725490196)" stroke-width="1.5"></path><path d="M1436.38 356.83L1542.71 368.09" stroke="hsla(0, 0%, 100%, 0.0784313725490196)" stroke-width="1.5"></path><path d="M1436.38 356.83L1252.12 343.42" stroke="hsla(0, 0%, 100%, 0.0784313725490196)" stroke-width="1.5"></path><path d="M1436.38 356.83L1400.32 541.41" stroke="hsla(0, 0%, 100%, 0.0784313725490196)" stroke-width="1.5"></path><path d="M1400.32 541.41L1400.32 541.41" stroke="hsla(0, 0%, 100%, 0.0784313725490196)" stroke-width="1.5"></path><path d="M1433.39 680.05L1433.39 680.05" stroke="hsla(0, 0%, 100%, 0.0784313725490196)" stroke-width="1.5"></path><path d="M1433.39 680.05L1400.32 541.41" stroke="hsla(0, 0%, 100%, 0.0784313725490196)" stroke-width="1.5"></path><path d="M1433.39 680.05L1269.54 504.66" stroke="hsla(0, 0%, 100%, 0.0784313725490196)" stroke-width="1.5"></path><path d="M1539.1 42.73L1539.1 42.73" stroke="hsla(0, 0%, 100%, 0.0784313725490196)" stroke-width="1.5"></path><path d="M1585.73 211.29L1585.73 211.29" stroke="hsla(0, 0%, 100%, 0.0784313725490196)" stroke-width="1.5"></path><path d="M1585.73 211.29L1542.71 368.09" stroke="hsla(0, 0%, 100%, 0.0784313725490196)" stroke-width="1.5"></path><path d="M1585.73 211.29L1539.1 42.73" stroke="hsla(0, 0%, 100%, 0.0784313725490196)" stroke-width="1.5"></path><path d="M1542.71 368.09L1542.71 368.09" stroke="hsla(0, 0%, 100%, 0.0784313725490196)" stroke-width="1.5"></path><path d="M1542.71 368.09L1430.17 209.87" stroke="hsla(0, 0%, 100%, 0.0784313725490196)" stroke-width="1.5"></path><circle r="25" cx="-97.07" cy="488.61" fill="url(&quot;#SvgjsRadialGradient1023&quot;)"></circle><circle r="25" cx="47.47" cy="538.47" fill="url(&quot;#SvgjsRadialGradient1023&quot;)"></circle><circle r="25" cx="215.41" cy="520.74" fill="url(&quot;#SvgjsRadialGradient1023&quot;)"></circle><circle r="25" cx="494.07" cy="505.19" fill="url(&quot;#SvgjsRadialGradient1023&quot;)"></circle><circle r="25" cx="654.31" cy="550.32" fill="url(&quot;#SvgjsRadialGradient1023&quot;)"></circle><circle r="25" cx="968.94" cy="397.7" fill="url(&quot;#SvgjsRadialGradient1023&quot;)"></circle><circle r="25" cx="1012.4" cy="669.56" fill="url(&quot;#SvgjsRadialGradient1023&quot;)"></circle><circle r="25" cx="1090.03" cy="400.81" fill="url(&quot;#SvgjsRadialGradient1023&quot;)"></circle><circle r="25" cx="1600.5" cy="-97.72" fill="url(&quot;#SvgjsRadialGradient1023&quot;)"></circle><circle r="25" cx="1609.77" cy="694.48" fill="url(&quot;#SvgjsRadialGradient1023&quot;)"></circle><circle r="5" cx="-91.99" cy="697.18" fill="rgba(255, 255, 255, 0.5392156862745098)"></circle><circle r="5" cx="194.05" cy="656.96" fill="rgba(255, 255, 255, 0.5392156862745098)"></circle><circle r="5" cx="345.23" cy="549.72" fill="rgba(255, 255, 255, 0.5392156862745098)"></circle><circle r="5" cx="364.08" cy="698.25" fill="rgba(255, 255, 255, 0.5392156862745098)"></circle><circle r="5" cx="517.15" cy="676.15" fill="rgba(255, 255, 255, 0.5392156862745098)"></circle><circle r="5" cx="677.9" cy="691.58" fill="rgba(255, 255, 255, 0.5392156862745098)"></circle><circle r="5" cx="848.49" cy="369.83" fill="rgba(255, 255, 255, 0.5392156862745098)"></circle><circle r="5" cx="824.94" cy="501.54" fill="rgba(255, 255, 255, 0.5392156862745098)"></circle><circle r="5" cx="956.52" cy="505.87" fill="rgba(255, 255, 255, 0.5392156862745098)"></circle><circle r="5" cx="1156.11" cy="522.67" fill="rgba(255, 255, 255, 0.5392156862745098)"></circle><circle r="5" cx="1152.43" cy="670.56" fill="rgba(255, 255, 255, 0.5392156862745098)"></circle><circle r="5" cx="1300.2" cy="-78.58" fill="rgba(255, 255, 255, 0.5392156862745098)"></circle><circle r="5" cx="1283.94" cy="102.02" fill="rgba(255, 255, 255, 0.5392156862745098)"></circle><circle r="5" cx="1294.65" cy="245.19" fill="rgba(255, 255, 255, 0.5392156862745098)"></circle><circle r="5" cx="1252.12" cy="343.42" fill="rgba(255, 255, 255, 0.5392156862745098)"></circle><circle r="5" cx="1269.54" cy="504.66" fill="rgba(255, 255, 255, 0.5392156862745098)"></circle><circle r="5" cx="1286.51" cy="659.58" fill="rgba(255, 255, 255, 0.5392156862745098)"></circle><circle r="5" cx="1448.15" cy="60.6" fill="rgba(255, 255, 255, 0.5392156862745098)"></circle><circle r="5" cx="1430.17" cy="209.87" fill="rgba(255, 255, 255, 0.5392156862745098)"></circle><circle r="5" cx="1436.38" cy="356.83" fill="rgba(255, 255, 255, 0.5392156862745098)"></circle><circle r="5" cx="1400.32" cy="541.41" fill="rgba(255, 255, 255, 0.5392156862745098)"></circle><circle r="5" cx="1433.39" cy="680.05" fill="rgba(255, 255, 255, 0.5392156862745098)"></circle><circle r="5" cx="1539.1" cy="42.73" fill="rgba(255, 255, 255, 0.5392156862745098)"></circle><circle r="5" cx="1585.73" cy="211.29" fill="rgba(255, 255, 255, 0.5392156862745098)"></circle><circle r="5" cx="1542.71" cy="368.09" fill="rgba(255, 255, 255, 0.5392156862745098)"></circle></g><defs><mask id="SvgjsMask1022"><rect width="1440" height="560" fill="#ffffff"></rect></mask><radialGradient id="SvgjsRadialGradient1023"><stop stop-color="#ffffff" offset="0.1"></stop><stop stop-color="rgba(255, 255, 255, 0.0784313725490196)" offset="0.2"></stop><stop stop-color="rgba(255, 255, 255, 0)" offset="1"></stop></radialGradient></defs></svg>